<svg id="Layer_1" data-name="Layer 1" xmlns="http://www.w3.org/2000/svg" viewBox="0 0 1965.66 1038.32"><defs><style>.cls-1,.cls-3{font-size:480.37px;}.cls-1{fill:lime;font-family:SnapITC-Regular, Snap ITC;}.cls-2{letter-spacing:0em;}.cls-3{fill:aqua;font-family:BernardMT-Condensed, Bernard MT Condensed;}.cls-4{fill:#009245;}.cls-5{fill:blue;}</style></defs><title>Slimy_Portals</title><text class="cls-1" transform="translate(18.53 412.88)">Sli<tspan class="cls-2" x="798.66" y="0">m</tspan><tspan x="1193.65" y="0">y</tspan></text><text class="cls-3" transform="translate(460.73 929.96)">Portals</text><path class="cls-4" d="M97.7,142.5" transform="translate(-36.05 -33.64)"/><path class="cls-4" d="M332.21,113.16l.53,1L330,104q13-17.2,6-11.64l-4,3.13a27,27,0,0,0-4.76,5.76,22.84,22.84,0,0,0-.42,22.23c6.89,12.46,24.66,16,34.82,5.23l-31.44-24.25c-1.47,3.33,3.1-2.89.49-.33-.81.8-1.54,1.65-2.27,2.51-4.78,5.68-7.22,11.85-6.21,19.34.86,6.44,5.06,13.54,11.11,16.58q7.89,5.78-6.69-16.22a9.52,9.52,0,0,1,4.18-6.32c1.35-1,1.27-1-.23,0-.82.45-1.64.88-2.48,1.28-7.09,3.55-10.55,12.55-9.56,19.94,1.09,8.1,6.65,14.08,14.34,16.64q-24-15.37-.05-30.84l22.6,29.4c3.69-5.57,4.06-12.36,2.62-18.72-2.58-11.43-14.34-15.55-24.62-14,2.89-.44,1.18-.19-.74-.19-1.46,0-2.89-.1-4.34-.23l19.3,25.33L350,137.2C353,122,340.82,109,325.33,112.57c-6.66,1.53-13.37,3.43-20.13,4.51h10.65l-1.34-.26,8.84,5.15,2.19,2.94,2.73,10.1a11,11,0,0,1-1.24,5.33q-1.2,2.73-.19.57a38.58,38.58,0,0,0,2.64-6.22,26.1,26.1,0,0,0,.27-13.89c-2-9.15-10.8-13.91-19.3-14.69a30.56,30.56,0,0,0-14.16,2.08l15.42,36.58,5.05-3.65c6.68-4.83,10.7-11.37,9.55-19.94-1-7.14-6.63-15.39-14.34-16.64-7-1.13-14.07-1.1-20.78,1.39-1.29.29-1,.27.73-.05a4.8,4.8,0,0,1,3,0c1.68.33,2,.36,1,.1q-4.31-1.31,4.63,5.06c5.4,5.43,5.72,7.36,4.9,3.4a21.93,21.93,0,0,0-2.64-6.42c-9.39-15-27.87-10.5-42-6.61-10.09,2.77-17.3,14.34-14,24.62s13.79,16.87,24.63,14c7.58-2,13.82-5.82,19.74-10.88,6.44-5.49,7.64-17.25,3.13-24.25-5.18-8-13.44-10.73-22.61-9.2-5.91,1,4-.89-1.89.22L268,96q3.07.67.89.15c-1.22-.34-1.16-.27.19.21a5.54,5.54,0,0,1,2.76,1.78,10.35,10.35,0,0,1,2.78,6.55c.22-7-4-13.8-9.91-17.28-6.71-3.93-13.45-3-20.2,0,2.62-1.16.51-.29-1,.15s-2.86.72-4.32,1c1.93-.37,2-.15,0-.18-1.8,0-3.52,0-5.31-.18l19.3,25.34.92-4.82c1.56-8.09-.43-15.83-7.17-21s-14.61-4.91-22.23-1.56L203.6,95.33l30.12,17.28a15.08,15.08,0,0,1-3.9,9.88l1.52-1.54a32.91,32.91,0,0,0,4.85-6.48c4.87-9,3.31-19.51-3.41-27.09-7.69-8.66-19.3-12.94-30.54-14.15a47.86,47.86,0,0,0-15.77,1,60.53,60.53,0,0,0-6,1.92c-1.06.4-2.13.75-3.21,1.06a9.16,9.16,0,0,1,4.41.29,13.27,13.27,0,0,0-6.78-1.32,19.91,19.91,0,0,0-10.1,2.73c-2.4,1.11-4.75,2.36-7.12,3.54l-14.24,7.09L167.65,121l7.35-7.74a20,20,0,0,0-24.26-31.43,354.79,354.79,0,0,1-33.81,17l27.39,27.38c2.79-4.62-2.33,3.38.67-1.08l1.14-1.12q-3,2.1-.24.21c8.68-5.82,13.29-17.91,7.18-27.38-5.85-9.07-17.75-12.9-27.39-7.19-3.64,2.16-7.34,4.23-11.12,6.13-1.62.82-3.26,1.61-4.9,2.37-1.1.51-2.2,1-3.31,1.5q3-1.23-.24.1l22.61,29.4a75.25,75.25,0,0,0,8.24-23c1.21-7.25.29-14-5.15-19.47C127,81.79,119,79.3,112.33,81.5a131.23,131.23,0,0,0-41.8,23L102,128.78c1.74-3-1.2,1.31-2.17,1.85l-2.1.77a12.42,12.42,0,0,1,2.89-.62L78,101.37,70.63,113c-4.56,7.19-3.2,18.44,3.13,24.25,7,6.4,15.87,7.1,24.26,3.13l25-11.83L98.77,97.07a26.91,26.91,0,0,0-8.67,14.46c-2.73,11.78,5.75,26.36,19.3,25.34,17.41-1.3,31.77-9.5,41.53-24l-37.3-10.1A35.61,35.61,0,0,0,120.05,127c4.89,6.66,11.32,10.71,19.94,9.55,7.36-1,15.1-6.62,16.64-14.34.62-3.07-1.21,1.36-1.7,2.34-1,1.15-1.15,1.34-.42.56s.55-.62-.62.37c-.69.33-5.41,2.11-2.54,1.47a15.71,15.71,0,0,1-9.95-1.28c-1.23-.6-3.41-2.28-3.8-3.68.25.92,2.7,3.58,3.05,4,2.29,3,4.65,5.65,8.11,7.47,7.48,3.93,17.3,4.59,24.62-.25,6.1-4,9.48-9.67,11.79-16.5a17.2,17.2,0,0,0,1.23-3.93q-2.1,4.53-1,2.47c.5-.9.23-.62-.79.84q-2.43,3.84-7.83,3.17-4,3.38-7.74,1.5-2.08-1,.42.44l1.3.87c.89.56,1.77,1.13,2.7,1.62a31.65,31.65,0,0,0,13.74,3.71c8.81.28,17.31-5,21.63-12.55,5.38-9.41,3.51-20.27-3.65-28.1-5.73-6.26-17.09-7.76-24.26-3.13a173.64,173.64,0,0,0-24.63,19.26h28.3c-4.71-6-9.12-13.41-14.84-18.5-9.83-8.75-22.55-8.83-33.79-2.59-4,2.24-7.75,5.45-11.29,8.35q-1.69,1.33.83-.63c-.87.65-1.77,1.26-2.69,1.83l-1.3.75c2.47-.92,2.65-1,.52-.31-3.68.6,2.46,0,3.33.3a8,8,0,0,1,3.07,1.66,6.38,6.38,0,0,1,2.4,2.66c-.66-.15-1.74-2.71-2.21-3.4a41.74,41.74,0,0,0-5.2-6.63,29.62,29.62,0,0,0-30.67-6.56c-10.08,3.57-16.51,11-22.25,19.65l-1.34,2q-1.7,2.35-.34.6c-.6-.49,18.59-6.2,2.64-3a31,31,0,0,0-11,4.52C50.68,110,45.74,120,44.9,131.34,43.8,146.4,62.77,156.42,75,148.63L80.65,145,53.27,117.66c-2.61,3.61-5.54,7.08-7.27,11.19-3,7-2.83,14.78,1.23,21.4A24.61,24.61,0,0,0,62.3,161.12c7.67,1.88,14.2-.47,21.14-3.48L59.18,126.21c-.36.42-2.52,3.28-3.16,3.26l1.6-1.36A20,20,0,0,1,55,129.53c-8.94,4.36-11.79,16.47-8.19,25,4,9.4,13.75,13.78,23.61,11.59,2.3-.49,2.16-.49-.4,0q3.51.15-.37-.28l-12-29.4c-.47,1-.94,2-1.48,2.92-.3.51-3,4-1.23,2,1.6-1.82-.85.73-1.15,1-1,1-2,1.82-3.09,2.68-6.17,4.9-6.93,15.27-4.14,21.86a20.17,20.17,0,0,0,18.29,12.31l4.23.11L51.78,149.24a84.69,84.69,0,0,1-5.28,8.95c-2.29,3.43,2-1.82-1.15,1.4-1.21,1.24-2.34,2.55-3.57,3.78a20.07,20.07,0,0,0-1.56,26.28c5.67,7.34,17.6,10.89,25.82,5.16l11.09-7.75L49.74,159.68c-5.15,11.72-7.89,25.81,2.59,35.86,9.77,9.36,25.22,10.21,35,.37L59,167.6a142.33,142.33,0,0,0-18.62,23.46c-4.59,7.18-3.19,18.46,3.13,24.26,7.11,6.53,15.7,6.84,24.25,3.13l9.84-4.28L50.21,186.79l-4.83,10.73c-3,6.72-3.91,13.52,0,20.2,3.79,6.47,10.08,9.33,17.28,9.91a33.73,33.73,0,0,0,21.27-5.74c8.58-6,13.36-17.8,7.19-27.38a20.47,20.47,0,0,0-27.39-7.18c-9.26,4.85-17.08,13.92-17.42,24.76a23.64,23.64,0,0,0,5,15.5,25.32,25.32,0,0,0,7,6.41c3.76,2.4,3.83,3.48-.59-4.31-6.18-10.9-3.76-4-2.42,1A25.25,25.25,0,0,0,68.52,246.8c8.28,4.07,16.9,3.86,25.74,2.09l-25.34-19.3c1-9.5,7-13.08,1.64-7.73a35,35,0,0,0-5.45,6.69,25.47,25.47,0,0,0-.61,25c7.69,14.25,23.53,16.57,37.92,12.77L77.79,241.72c-1,7.36-1.47,14.49,1.23,21.6,4.79,12.62,17,18.07,29.4,12,2.77-1.36,5.57-2.64,8.37-3.92-1.87.86-1.1.44.33-.13,1.72-.69,3.45-1.35,5.18-2L97.68,244.61l-2.44,10.92c-2.3,10.3,3,22,14,24.62,8.35,2,15.7,1.86,24.12.61l-22.6-29.4a65.45,65.45,0,0,0-5.41,14.54c-3.23,14.7,9.32,28.77,24.62,24.62q5.34-1.45,10.67-2.87c1.75-.47,3.65-.78,5.35-1.42,9.6-3.59-17-24.33-18.26-13.94-1.08,8.62,1.19,17,7.23,23.38,5,5.24,12.65,6.85,19.48,5.15,5.35-1.34,10.73-2.54,16.16-3.55,2.56-.47,5.11-.9,7.68-1.29.36-.06,4.19-.59,2.16-.33-2.25.3,3.28-.37,3.14-.35L164.26,270l-3.68,12.66c-4.77,16.38,14.58,32,29.4,22.6.93-.61,1.87-1.19,2.83-1.74a6.83,6.83,0,0,1-3.92.74q-13.8-1.17-12.68-18.44c-.17.66-.36,1.32-.59,2-2,7-2,14.29,2,20.59,4.35,6.83,14.28,12.49,22.6,9.2l14.17-5.6-22.61-29.4c-5.84,8.62-8.3,20.36-2.56,29.76,5.53,9,17.4,15.49,28,11.39l-24.62-24.62-1.42,6.81c-2.08,10,2.83,22.42,14,24.62,7.44,1.47,14.59,1.15,21.13-3.13l-24.25-31.43-3.87,4.58c-6.74,8-8.42,20.57,0,28.3,7.44,6.83,21.1,8.55,28.31,0l3.86-4.58c6.5-7.69,8-18,1.57-26.28-5.81-7.52-17.42-10.64-25.82-5.15l9.71-.91,14,24.62,1.42-6.81c1.48-7.12.14-14.18-5.15-19.47-4.66-4.66-13-7.66-19.47-5.15q11.19,32.64,18.35,19.84a22.87,22.87,0,0,1,1.43-2.19c4.47-6.59,3-16.29-1.57-22.23-4.47-5.78-13.68-10.08-21-7.17l-14.16,5.6,22.6,9.2,1.25,2.71v10.64c.63-4.39,2.2-8.28,2.12-12.85a24.75,24.75,0,0,0-11.92-20.17c-11.14-6.62-23.35-4.51-33.89,2.2l29.41,22.6,3.68-12.66c3.31-11.37-6.24-26.81-19.3-25.33a305.87,305.87,0,0,0-39.78,6.94l19.47,5.15c1.11,1.18,5.5,7.71,4.21,9.78a7.61,7.61,0,0,0,.09-2.15c.08-1.42.26-2.82.2-4.25-.34-8.23-4.11-16.65-11.56-20.84-11.82-6.64-24.85-1.25-36.88,2l24.62,24.62c.3-1.39.89-2.8,1.08-4.18.39-2.64-1.84,3.59.29-.8,3.6-7.4,3.65-15.48-1.56-22.22s-12.8-8.4-21-7.18c4.72-.7-.67-.28-1.45-.27-4.28,0,3.13.76-1.39-.34l14,24.63,2.44-10.93c1.58-7.07.09-14.24-5.15-19.48-4.7-4.7-12.95-7.59-19.47-5.14a252.56,252.56,0,0,0-23.44,10.09l29.4,12c-.21-.56-1.66-4.86-.89-2,.11,1.35.14,1.45.09.29q0-2.28-.42,1.34c1-7.33.39-13.93-5.15-19.47a20.24,20.24,0,0,0-19.48-5.15c-.38.11-3.2.55-3.3.82.73-1.86,6.34,1.54,6.5,1.63q6,2.22,3.61,10,3.75,5.76.27,9.66c-1,1.24-1.15,1.47-.41.7.42-.42.86-.84,1.3-1.24,5.71-5.67,8.34-11.8,9.21-19.75.67-6.08-3.34-12.21-7.88-15.72-5.26-4.06-11-4.87-17.45-3.58-3.85.77,4.44.1.66-.1-3.6-.18-1.45-.28.7.33,4.1,1.18,7.62,5.53,8.88,9.49,2.15,6.76-1.18-5.58-1.77-7C90,208,85.81,203,80.67,200.73c-9.52-4.18,8.72,13.61,3.26,20.23a5.16,5.16,0,0,1-2.43,2.32,20.88,20.88,0,0,1,2.43-1.39l-20.2-34.56c-1.54,1.07-4.39,1.7-.5.59l2.39-.22a15.43,15.43,0,0,1-3-.1L80,217.72,84.77,207c3.57-7.92,3.85-17.85-3.13-24.26s-15.7-6.84-24.25-3.13l-9.84,4.28,27.38,27.39c1-1.5,1.93-3,2.94-4.45.68-1,1.37-1.94,2.08-2.89-1.14,1.47-1.28,1.65-.39.55,2.55-2.91,5-5.82,7.74-8.57,7.37-7.46,8-21,0-28.31s-20.43-7.95-28.31,0q25.09-10.83,25.55,12.31,1.08-3.27-.23,0c3.5-8,3.89-17.81-3.13-24.25-6.2-5.69-16.83-8.32-24.25-3.13l-11.1,7.74,24.26,31.44a88,88,0,0,0,16.26-22.24c6.85-13.58-1.51-29.71-17.28-30.12l-4.23-.1L79,173.38A48,48,0,0,0,92.2,156.65c2.84-6,3.63-11.62,1-17.81-2.21-5.24-7-10.6-13-11.59a50.44,50.44,0,0,0-20.51.27L75.16,164.1a38.3,38.3,0,0,0,12.33-9.59c6.48-7.7,8-17.95,1.56-26.28s-16.5-9.2-25.82-5.15q8.91-5,18,6L84,139.15q-3.54,9.25-1,5.46l1.63-2.25,3.24-4.5c5-6.86,2.93-18.69-3.13-24.25-6.4-5.87-16.56-8-24.25-3.13l-5.64,3.58,30.12,17.28q-.8,4.23-.16,2c.45-1.43.23-.87-.64,1.69-.6,1.07-2.42,2.58-.53.91a5.68,5.68,0,0,1-3,1.94c-1.59.56-1.55.58.15.06l-2.53.38c1.37-.14,2.74-.32,4.1-.52,10.55-1.42,16.73-9,22.29-17.4.59-.9,1.19-1.8,1.79-2.7q1.68-2.37.35-.57t.54-.42l-1.76,1.22c1.64-.91,1.72-1,.26-.4s-1.35.55.4,0h-6.4c-2.1-.49-3.38-2.16-5-3.31-2.19-1.57.11.42.7,1.31a39,39,0,0,0,8.54,9.73c7.77,6,16.86,7.32,26.39,5.62,8-1.41,14.4-6,20.6-10.87.41-.32,4-3.13,1.82-1.47s1.46-1,1.91-1.29c3.57-2.25,5.58-1.5-3.75-1.84q-5.24,1.66-8.66-1.81l.86,1c3.92,5.79,8.75,11.17,13.06,16.68,2.81,3.6,9.75,6.06,14.15,5.86a21.36,21.36,0,0,0,14.15-5.86c3-2.8,6-5.45,9.22-8-3.32,2.69,1.18-.83,1.53-1.08,1.89-1.35,3.83-2.64,5.79-3.9l-24.26-3.13.65.71L172.33,107l4.15-15.06,17.15-2.75a16.6,16.6,0,0,0-2.71-1.62,43.67,43.67,0,0,0-8.86-4.43A26.06,26.06,0,0,0,160,85.37c-6,3.82-9.36,9.37-11.83,15.85-.49,1.29-.86,2.61-1.28,3.92a12.09,12.09,0,0,0-.63,1.9c.52-4.87,5.32-6.51,9.1-8q5.35-4.41,10.79-.31a6.45,6.45,0,0,1,6,3c1.85,1.18.5.62-.31-.45-2.3-3-4.21-5.61-7.19-7.91a26.49,26.49,0,0,0-20.1-5.56c-12.42,1.67-23.93,11.11-26.47,23.76l36.59-4.78a17.62,17.62,0,0,1-1.68-2.5q1.38,3.78.35.6c.49,5.59.21-.86.37-2.15,1-8.26-6.92-17.53-14.69-19.3-9.08-2.07-17.46,1.54-22.61,9.2-1.24,1.8-1.07,1.62.52-.56q-1,1.09-2,2.1-2.48,2.16.68-.35c-.79.56-1.6,1.09-2.44,1.57s-1.7.94-2.59,1.35c2.56-1,2.8-1.2.71-.46-.93.28-1.87.52-2.82.71q4.4-.45,1-.17l19.3,25.34c.66-2.29.27-1.83-1.18,1.36q-3,4.26-.44,1.84c7.73-6.25,7.1-19.12,1.57-26.28-6.41-8.3-16.67-9.49-25.82-5.16l-25,11.84,27.39,27.38,7.35-11.58c4.3-6.77,3.15-16.13-1.56-22.23-5.29-6.84-12.82-8.45-21-7.17-9.49,1.47-17.79,8.29-22.55,16.39a20.07,20.07,0,0,0,5.16,25.82c8.43,6.52,18.38,4.77,26.28-1.56,4.2-3.37-1.91,1.12.71-.52,1.21-.76,2.34-1.65,3.53-2.44,2.38-1.57,4.84-3,7.35-4.4,2.27-1.23,4.6-2.29,6.92-3.41,2.1-1-2.81.93.77-.27,1.62-.54,3.23-1.15,4.86-1.69L98.35,95.48a58.46,58.46,0,0,1-2,8.56c-.36,1.12-.75,2.23-1.19,3.32,1.61-4-.77,1.14-1,1.57a20.24,20.24,0,0,0,1.57,22.23c4.42,5.74,13.73,10.17,21,7.18a221.61,221.61,0,0,0,29.13-14.13L125.68,89.64A51.32,51.32,0,0,0,109.75,106c-4.42,7.31-3.3,18.35,3.13,24.26,7.11,6.52,15.72,6.86,24.26,3.13a352.38,352.38,0,0,0,33.8-17L146.69,85l-7.35,7.75A20.13,20.13,0,0,0,137.78,119c6.32,8.18,16.76,9.66,25.82,5.15L185,113.5l-15.42,2c5.63,2.35,12.55,1.89,18.33.32,2.17-.59,4.22-1.52,6.36-2.19a28.82,28.82,0,0,1,2.9-.78q-3.92.38-1.62.18c1.38,0,4-.64,5.25,0-2.84-.42-3.13-.41-.89,0q1.09.27,2.16.63c1.4.49,1,.27-1.29-.63.9.43,1.78.9,2.64,1.42,1.82,1.23,1.69,1.07-.41-.49a7.37,7.37,0,0,1,1.51,1.64l-5.15-8.83q-1.56-7.76,2.79-13c1.19-1.47,1.24-1.63.16-.46a34.05,34.05,0,0,0-4.6,5.61,23.22,23.22,0,0,0-4,13.59,20.35,20.35,0,0,0,9.91,17.28c6.72,3.94,13.44,3,20.2,0l21.09-9.25L215.49,98l-.92,4.82c-2.59,13.47,5.65,24.25,19.3,25.33,10.91.87,20.93-1.89,30.81-6.25l-30.12-17.29c-.35,11.3,6.3,21.53,16,27,10,5.62,20.95,4.47,31.74,2.66l-19.47-33.45c4.15-3.54-.53.84-1,.43l1.94-.75a23.28,23.28,0,0,1-3,.9L271.4,140c2.87-.79,5.75-1.51,8.66-2.1,1.17-.24,2.34-.45,3.51-.66,5.23-1-3.22-.32.87.21l-10.1-2.73,1.06.67-7.18-7.18c-2.5-5-1.15-1.77-.73-.32a23.88,23.88,0,0,0,5.72,9.69,26.16,26.16,0,0,0,12.05,7,33.13,33.13,0,0,0,14.66.3c1.45-.27,2.84-.63,4.26-1l1.56-.42q5.29-1-4.41-.34l-4.78-36.58-5,3.65c-8.16,5.9-12.32,15.22-8.19,25,3.46,8.22,14.4,15.47,23.61,11.59.58-.25,4.64-1.88,1.67-.91-2.3.76.73.16,1.85.26l-19.3-14.7a13.43,13.43,0,0,1,1.13-10.73c-.31.61-.59,1.22-.87,1.84-1.77,3.89-3.3,7.35-3.21,11.75a22.34,22.34,0,0,0,10.89,19.1c10.83,6.34,25.59.36,36.89-2.23l-24.62-24.62L309,138.05c-2.76,13.62,5.8,24.07,19.3,25.34,5.38.5,10.37-.2,15.72-1l-24.62-14,.26,1.15V138.91l1.16-2.63c-9.57,14.44,6.32,34.58,22.6,29.4,22.84-7.27,22.53-38.87.05-46.36l4.78,36.59c8.05-4,14.77-10.53,17-19.5a25.37,25.37,0,0,0-2.12-18.33,22.63,22.63,0,0,0-4.34-6L354.81,109q-4.11-3.17,4.32,4.26l2.73,10.1q-8.69,15.61-3.71,10c.56-.57,1.11-1.14,1.65-1.73a27.27,27.27,0,0,0,4.95-6.9c4.07-9.24,3.33-19.26-5.16-25.82-7.63-5.89-19.4-5.73-26.28,1.57l-.57.61,14.15-5.87,3.7.45,8.84,5.15,1.94,2.53,2.73,10.1,0-1-2.73,10.1a15,15,0,0,1-4.12,3.66q2.53-1.9,5-3.86a25.7,25.7,0,0,0,4.7-6,23.6,23.6,0,0,0-.16-23.4c-5-9.18-18.47-12.93-27.39-7.18-9.31,6-12.58,17.56-7.18,27.39Z" transform="translate(-36.05 -33.64)"/><path class="cls-4" d="M195.82,324.43c.4-5.54,2.87-8.18,8.2-10.36-9.34,3.81-15.77,11.31-14.34,22,1.2,8.94,9.75,18.46,19.66,17.36l19.78-2.21-5.32-39.32c-14.11,2.38-21.65,18.8-18,31.63,4.21,14.76,19.76,20.58,33.61,17.57l-19.47-33.45-24.4,23.72L227,375.59l-16.23,6.27-14.69-19.3q.91-9,9.87-12.38l24.63,24.62a20.89,20.89,0,0,1-2.15,3.94H200.1L199,377.05c.92,1.66,1.07,1.78.43.36-1.15-2.28.18,1.5.27,2.07l29.4-22.6c-10.55-6-21.74-13.41-33.87-6.16-10.69,6.38-12.54,19.53-12.46,30.9l25.33-19.3q13.08,11.63,7.16,4.52a25,25,0,0,0-2.34-2.89,24.42,24.42,0,0,0-9.89-5.77c-5.67-1.65-11.33-.8-16.65,1.45-11.15,4.71-15.46,16-15.72,27.41l37.29-10.1L201.88,367c-7.37-12.06-27.69-13.95-34.57,0l-1.78,3.62,17.28-9.92c.84.09,8.09,3.2,4.49.88a32.76,32.76,0,0,0-6.16-2.69,25.56,25.56,0,0,0-12.44-1.28,40.26,40.26,0,0,0-8.15,1.91c-1.12.38-4,.57-.81.53,6.64-.07,12.59-.12,15.23,10.65-1.64-6.72-7.4-12.17-14-14-7.31-2-13.92.4-19.47,5.14a32.19,32.19,0,0,0-10,16.95L168.07,374c-.88-1.62-1.71-3.24-2.52-4.89-1.88-3.83.84,2.38-.77-2-2.8-7.65-8.26-13.21-16.64-14.34-7.43-1-16.41,2.44-19.94,9.56L123.9,371l31.43-4q2.29,3.21.64.34c1,2.44,1.19,2.61.44.49a54,54,0,0,0-3.44-9.14,30,30,0,0,0-11.39-13.29A26.61,26.61,0,0,0,105.05,354l36.58,4.79a67.78,67.78,0,0,1-4.27-15.44c-1.17-7.66-9.66-13.4-16.64-14.34-8.44-1.13-15.09,2.87-19.94,9.56a55.48,55.48,0,0,0-6.85,13.84l39.32,5.32c-.34-8.59-1.35-17.46-6.29-24.76-6.06-9-16-15.05-27.08-14.11a53.14,53.14,0,0,0-8.6,1.48l-1.63.46q-3.15.71-.26.22a6.63,6.63,0,0,1,4.14.32l5.63,3.52q3,3.57,1.14,1.09l-3.13-4.05C92,316.26,82.5,314,75.3,316.29A28.09,28.09,0,0,0,68,319.82L64,323q-7.11,6.24,13.18-2.42L86,325.68l-.69-.79c-5.24-6-15-7.05-21.86-4.13-7.59,3.2-11.84,10.16-12.31,18.29l-.3,5.23L60.72,327c-6.56,3.41-12.79,8-16.57,14.5-4.88,8.42-5.59,20-.32,28.46,8.05,12.86,27.93,17.65,42.3,16.56L72,352.35l-11.73,15c-4.09,5.23-6.41,10-5.5,16.82.78,5.79,4,11.93,9.55,14.62s11.23,4.72,17.51,4l-19.3-25.34c-3.45,12.26-.56,25.32,10.93,32.22V375.09a76,76,0,0,1-10.09,6.54c-13.45,7.28-12.53,27.05,0,34.56A10.26,10.26,0,0,1,60,412.62c.5.76,1,1.54,1.45,2.34.73,1.19,1.46,2.31,2.28,3.45,3.94,5.45,8.86,9.63,15.44,11.51,13.56,3.86,26.18-3,30.89-16.2,5.2-14.58-10.73-28.63-24.62-24.63a33.36,33.36,0,0,0-23,22.81c-2.44,7.91,1.5,18.82,9.2,22.6,4.7,2.31,9.34,4.28,14.53,5,5.58.76,10.34,1,15.42-2,4.15-2.43,8.11-7.19,9.2-12,2.14-9.4-2.89-23.11-14-24.62a32.92,32.92,0,0,1-4.19-.79c-1-.28-4.27-1.88-.78-.17l9.2,22.61c-1.25,2.47-1.51,3-.76,1.73s.39-.79-1.12,1.44c-.85.87-6.53,3-3.11,2L71.45,403.07l1.18-3.18,7.18-7.18c3.28-2.48,9.43-2.13,12.85-.31q7.13,8,4.06,3.55c-.36-.6-.72-1.19-1.07-1.79a35.4,35.4,0,0,0-12.09-12.53v34.56a76.59,76.59,0,0,0,10.09-6.53c5.8-4.45,9.91-9.55,9.91-17.29a20.24,20.24,0,0,0-9.91-17.28q7.41,20.49,7.41,11.38c-.48,3.18-.47,3.71,0,1.61,3.21-11.37-6.15-26.83-19.3-25.34-3.3.38,1.48.87,2.7,1.46l4,31.44,11.72-15c5.13-6.55,7.59-13.69,4.14-21.86-2.89-6.85-10.42-12.9-18.29-12.3-1,.08-8.08-.46-3.67.3-1.8-.31-3.57-.74-5.34-1.18s-3.69-1.39-5.42-1.51c-1.45-.48-.85-.24,1.78.71q8.16,5.56,6.23,14.63c-.81,2.6-2.21,3.62-4.11,5.21,1.59-1.33,3.62-2,5.33-3.09a21,21,0,0,0,9.2-12c.9-3.28.82-7.13,1-10.55L57,353.2c5.26,6,14.56,8.3,22.2,6.12a31.11,31.11,0,0,0,7-3.11,57.32,57.32,0,0,0,5-3.93c-2.2,1.37-2.35,1.56-.47.59l-10.1,2.73,1.25-.12-10.1-2.73,1.14.55-7.18-7.19c3.46,4.72,5.88,8.54,11.19,11.42,6.52,3.54,14,3.84,21.1,2.36,1.24-.26,4.39-1.77,5.54-1.43A10.07,10.07,0,0,1,95.79,357a6.21,6.21,0,0,1-2.34-2.35c-.88-1.32-.83-1.19.14.37-1-2.42-1.12-2.52-.45-.28-.55-5.23,0,2,.08,3,.39,10,7.31,18.31,17.35,19.66,10.34,1.39,18.48-4.86,22-14.34-1,2.64-.44.87.45-.69a39.05,39.05,0,0,1,2.37-3.59L98.76,354A67.78,67.78,0,0,0,103,369.39c3.1,7.61,8,13.18,16.64,14.34a20.23,20.23,0,0,0,19.94-9.56c-6.15,9.66-16.51,9-22.5,1.95,1,2,.94,1.79-.2-.58q.47,1.45.9,2.91A45.64,45.64,0,0,0,127,395.29c8.08,9.37,26,7,31.43-4.05l4.31-8.68-36.59-4.78a119.8,119.8,0,0,0,7.33,16.45c8.06,14.7,32.83,12,36.58-4.78.8-3.58-1.48,2.38-.33.27s-3.09,3.15.07.45l-33.46-8.83c3.16,12.85,16.18,19.78,28.71,18.1a36.68,36.68,0,0,0,6.89-1.6l1.56-.56q5.26-1.3-4.43-.35c-4.62-1.29-.43,0,.73.51a35.73,35.73,0,0,0,13,3.3c6.46.61,14.44-4.16,17.28-9.92l1.79-3.62H167.31l6.07,9.95c10.41,17.05,36.84,9.81,37.3-10.11.06-2.59.12-.62-.33.72-2.1,6.13-37.37-6.42-23.9,6.8,2.91,2.86,6.85,5.77,11,6.36,6.61.95,12,.64,17.45-3.58a19.58,19.58,0,0,0,7.89-15.72,47.14,47.14,0,0,1,.2-5.57l-.17,1.64q1-4-.68.74L215,385.62l.92-.67-10.1,2.73,1.55,0L197.22,385c4,1.86,7.82,4.28,11.67,6.46a20.17,20.17,0,0,0,22.23-1.56c6.8-5.26,8.51-12.84,7.17-21-1.15-7-5.06-13.3-9.89-18.4-7.68-8.12-20.48-7.13-28.3,0A28.69,28.69,0,0,0,192,364.16c-3.92,14.16,9.91,29.45,24.62,24.62,11.49-3.78,20-13.69,19.51-26.22-.3-8.09-6-17.8-14.69-19.3-11.81-2-22.59,1.45-29,12.12-5.15,8.59-2.59,19.84,5.15,25.82a20.07,20.07,0,0,0,26.28-1.56l24.41-23.73c6.11-6,7.85-16.92,3.13-24.25a20.85,20.85,0,0,0-22.61-9.2c6.36-1.38,6.51,1.13,10.82,7q7.38,4.29,4.25,10.53-1,7.62-9.4,10.47c9.79-1.65,15.54-13,14.34-22S239,310,229.12,311.15l-19.78,2.21,5.32,39.31c12.84-5.23,20.17-14.19,21.19-28.24.75-10.47-9.75-20.48-20-20-11.49.52-19.2,8.81-20,20Z" transform="translate(-36.05 -33.64)"/><path class="cls-4" d="M459.63,163.87c1.68-.67,3.3-1.15,5-1.67,4.08-1.22-2.93,0,1.68-.15l-14.15-34.17c-.81.79-1.64,1.56-2.51,2.29,1.62-1.18,1.85-1.37.69-.54-1.7,1-3.32,2.14-5.07,3.1-8.75,4.8-11.94,16.11-8.19,25,3.58,8.5,14.23,15.09,23.61,11.59,3.64-1.35,7.3-2.63,11-3.78q2.56-.79,5.15-1.52c.86-.25,1.73-.48,2.59-.71q-4.56.18-1.29.36l-10.1-2.74L463.35,156l-2.73-10.11q.45,5,1.84-5.58c-1.16,1.84-.87,1.54.84-.9-5.67,6.51-8.14,16.48-3.13,24.26,4.8,7.43,13.82,11.7,22.61,9.19l-2.91.28q-7,.31-9.7-5.8-4.16-2.9-3.16-7.57-1.17-7.24,6.28-11.58c-6.91,5.24-12.13,13.52-9.19,22.6s10.12,13.81,19.3,14.7c1.53.15,3.07.37,4.61.45,3.19.15-3.84-1.12-.48.09l-8.83-5.15.77.6-5.15-8.83.32.87V162.87l-.38,1.13,5.15-8.83c-2.46,2.64-5.31,5-8,7.41C456.72,176,472.07,202,490.9,196a8.91,8.91,0,0,1-6-.75q-5.19-2-2.13-.21l-7.18-27.39c2.39-3.39-.71.76-1.21,1.27a41.66,41.66,0,0,1-3.88,3.39c-6.61,5.22-7.51,17.45-3.13,24.25a20.76,20.76,0,0,0,22.6,9.2c1.21-.3,2.43-.56,3.65-.8q3.17-.51,1-.23c-1.44.17-1.09.13,1-.1q1.86-.16,3.72-.24l-19.3-14.7.16,1.17V180.24c1.51-5.16,9.6-10.68,3.94-6.71a32.79,32.79,0,0,0-5.94,5,25.79,25.79,0,0,0-6.58,16.34c-.34,7.49,4.55,15.49,11,19.15,10.11,5.78-7.49-10.66-3.38-17.84,2.61-4.56.48-.75-.53.48a39.67,39.67,0,0,0-4.84,6.78,27.36,27.36,0,0,0-2.6,18.28c1.93,9.49,9.94,16.07,18.8,18.81a50.75,50.75,0,0,0,5.31,1.3c1.12.21,3.19,1.58.19-.14a12.29,12.29,0,0,1-7.14-6.25q-5.16-9.57,0-16,1.61-2.1-.37.29L487.07,221c-1.77,2.19-3.5,4.43-5.16,6.7a64.51,64.51,0,0,0-5,7.62c-5.46,10.28-6.2,23.15,2.54,32,9.5,9.61,23.36,9,33.2.49l-28.3-28.3c-9.77,10.63-20,24.78-11.08,39.34a25.67,25.67,0,0,0,16.94,11.5c5.17,1,7.82.74,13,0,1-.13,2-.29,2.94-.46a9.65,9.65,0,0,1-8.38-1.44l4.78-36.58A229,229,0,0,0,472,265.76c-8.67,4.8-13.59,18.86-7.18,27.38a37.06,37.06,0,0,0,17.7,13.42c1.55.59,3.12,1.09,4.69,1.59.87.28,1.74.58,2.61.84,3.22,1-3.3-1.85-1.43-.59s-3.84-3.64-1.37-1.09a15.3,15.3,0,0,1-3.93-9.35c.64-3.24.73-4.08.29-2.53-.32,1-.2.75.35-.74.72-3-.24,0-.76.89-2.9,4.74-6,9.53-7.06,15.08-2.36,12.1,5.43,26,19.3,25.34a32.32,32.32,0,0,0,14.88-4.07c9.2-5,12.91-18.49,7.18-27.38-6-9.36-17.53-12.52-27.39-7.18-11.38,6.16-26.55,17.9-25.91,32.38A22.88,22.88,0,0,0,483.7,351.7c6.15.82,12.42-.3,18.57-.86l-14.16-34.17c-7.8,7.56-17.26,17.94-19.8,28.82-2.3,9.84,1.45,20.64,10.61,25.69a24.63,24.63,0,0,0,12,2.89,38.9,38.9,0,0,0,6.9-1c5.49-2,.1,5.75-10.2-1.85L480.42,364l.56,1.1L478.25,355c0-.87,3.48-8.3,1.09-5-1.85,2.59-2.25,5.43-2.65,8.4a23.19,23.19,0,0,0,2.58,14.78c5,8.64,15.14,13.75,25.05,10.63l-10.65-38.6a96.42,96.42,0,0,0-28.6,15.83c-6.2,4.81-6.88,15.36-4.13,21.87a20,20,0,0,0,18.29,12.3,44.9,44.9,0,0,0,20.31-5.13l-29.4-22.61c-.21,1.25-.62,2.45-.85,3.68-.45,2.39,2-3.84-.2,0-6.76,11.71-.21,25.29,12,29.4a24.22,24.22,0,0,0,10,1.25c10.39-1,20.53-8.46,20-20-.45-9.95-8.86-21.13-20-20q-3.49.27.62.18l12,29.41a40.84,40.84,0,0,0,5.08-13.26c1.41-8.15-.32-15.74-7.17-21-6.65-5.13-14.83-5.19-22.23-1.56q3.15-1.16-.16-.12c2.41-.22,2.42-.29.05-.21l14.15,34.17c-3.4,2.63,1.24-.66,1.61-.9,1.23-.77,2.48-1.5,3.75-2.18s2.58-1.32,3.89-1.94c-3.16,1.5.39-.07,1.69-.52,9.87-3.4,17.45-13.88,14-24.62-3.25-10-13.93-17.34-24.63-14l-.78.25h10.64l-.69-.23,8.84,5.14q-1,27.47,3.15,17.9,1.24-2.69,2.32-5.44a29.29,29.29,0,0,0,1.12-6.63,21.89,21.89,0,0,0-8.44-18.05,22.44,22.44,0,0,0-14.23-5.06,32.33,32.33,0,0,0-6.84.91c-6.77,1.47,4.07-1.59,9.58,2.06l7.18,7.18,1.29,2.8v10.64c.42-2,.13-1.56-.86,1.42.56-1,1.15-1.94,1.76-2.89.91-1.43,1.9-2.8,2.88-4.18-2.52,3.57.73-.77,1.13-1.22,1.49-1.69,3.08-3.29,4.7-4.86,5.78-5.61,7.19-14.63,4.14-21.87-2.86-6.77-10.46-13-18.29-12.3l-8.75.79c-1.3.12-2.59.25-3.89.35-2.56.21-2.93-.76,1,.47l8.83,5.14-.83-.67,5.14,8.84-.5-1.3v10.64c-.19,1.29-3.94,4.8-1,2.38,1-.87,2-1.83,3-2.75,2-1.86-3.69,2.2.55-.28,1.41-.84,2.79-1.7,4.24-2.49l-20.21-34.56L495.2,296l19.3,25.34a8.07,8.07,0,0,1,.42-1.81c.45-1.43.19-.81-.81,1.86,0,0,1.92-3.23,2-3.36a62.93,62.93,0,0,0,3.23-5.48c4.43-9,5.29-19.38-.05-28.3-4.19-7-10.84-10.93-18.33-13.64-1.88-.68-3.83-1.33-5.75-1.86-3.67-1,3.94,2.28.8.37l-.89-.52a10.82,10.82,0,0,1,4.26,4.38l-7.18,27.38c3.89-2.15,7.83-4.19,11.87-6.07.76-.36,6.51-2.87,2.54-1.21,2.19-.91,4.4-1.76,6.63-2.59,7.64-2.86,13.2-8.22,14.33-16.64,1-7.14-2.35-16.8-9.55-19.94-6.23-2.72-11.5-4.08-18.33-3.17q-2.07.27-4.14.57c-1.93.32-2,.33-.13,0,6.71.5,15.82,2.88,14.62,13.91l-2.73,10.1a10.42,10.42,0,0,1,1.54-2.91q1.84-2.52.63-1t.75-.88c.8-.94,1.63-1.86,2.47-2.76,7.09-7.71,8.2-20.78,0-28.3-8.47-7.78-19.82-7.32-28.3,0l-.75.65,8.83-5.15q12.36,34.14,19.41,19.88.84-1.44,1.74-2.85c.47-.73,4.7-6.34,1.75-2.71,4-5,8.44-9.43,10.07-15.84,3.62-14.2-5.63-26.33-18.94-30.14-1.11-.32-2.26-.51-3.38-.78-2.24-.54-4.87-2.48.26.47q9.24,5.76,5.83,19.22-2.22,2.74,0,.22a39.43,39.43,0,0,0,5.27-7.24c4.15-7.64,4.9-17,.67-24.82a23.2,23.2,0,0,0-8.42-9,7.75,7.75,0,0,0-1.94-1c-1.9-.9-1.42-.44,1.45,1.4l5.15,8.83-.36-1.1V200.2a14,14,0,0,1-5.48,7.17l1.12-.68a24.27,24.27,0,0,0,7.65-6.89c5.09-6.6,5.54-12.53,4.42-20.72S507.3,164,499.41,164.39a117.23,117.23,0,0,0-20.08,2.8l19.48,33.45c4.55-3.59,8-8,11.35-12.75,6.49-9.25,1.17-21.75-7.18-27.39a27.23,27.23,0,0,0-22.72-3.07l19.47,33.46c8.41-7.66,17.33-16.24,13.19-28.9a22.72,22.72,0,0,0-15.75-14.93c-4.28-1.17-9.33-1.18-13.77-1.61l10.1,37.3c10.89-8.25,16.31-20.42,10.71-33.69-5.2-12.32-19.38-18.42-32.07-14.81l19.47,33.46c5.07-5.82,8.86-12.24,9.11-20.21a23.14,23.14,0,0,0-12.44-21.14c-12.27-6.11-26.31-.08-38.21,4.35l15.42,36.58a73.07,73.07,0,0,0,15-11.11c12.35-11.7,3.12-34.83-14.16-34.16A52,52,0,0,0,449,125.27c-9.71,3.84-17.56,13.56-14,24.62,3,9.4,14.19,18.1,24.62,14Z" transform="translate(-36.05 -33.64)"/><path class="cls-4" d="M480.61,411.18c2.1.42,1.68.11-1.24-.93q-9.54-9.27-5.55-19l7.18-7.18c-2.41,1.78,1.19-.64,1.88-.58a6.48,6.48,0,0,0-2,.64,27.23,27.23,0,0,0-10.37,6A22.08,22.08,0,0,0,468.86,419c7.43,9.62,20.76,15.4,32.91,14,10.37-1.18,20.54-8.36,20-20-.49-10.82-8.8-20.06-20-20a73.27,73.27,0,0,0-33,8.07c-11.59,5.83-23.73,15.93-23.73,29.9,0,12.52,12.86,23.35,25.34,19.3a57.23,57.23,0,0,0,19.38-10.9c6.11-5,7-15.18,4.14-21.87-3.2-7.59-10.16-11.82-18.29-12.3-25.85-1.52-43.31,28.93-28.83,50.48,5.83,8.67,17.9,13.29,27.38,7.18,8.65-5.58,13.43-18.09,7.18-27.39-2-3,.15,1.87.2,3.24q0-3.42-.28.91a6.3,6.3,0,0,1-1.67,3c-1.09,1.25-1,1.25.19,0a5.75,5.75,0,0,1-3,2q-2.39.87.15.11c-3.1.3-3.54.47-1.3.5L461.48,411c3.74-3.05-.11-.19-.91.31-3.45,2.15,3.39-1.06-.8.3l25.34,19.3c0,7.9-6.72,12.36-1.31,7.56-2,1.76-1.36,1,.41-.14,1.1-.71,2.23-1.4,3.39-2,.77-.42,4.95-3.19.95-.65,2-1.28,5.25-1.78,7.56-2.28.77-.17,1.55-.32,2.33-.45q2.26-.37-1.4.22c1-.61,3.68-.17,4.73-.18V393c-1.23.14-2.48.09-3.71.19-2,.16,4,1.3.21-.19,1.39.55,2.7,1.5.71.19-3.9-2.57,2.27,2.45-.25-.45l5.14,8.83.4,3.43-2.74,10.1.42-.65-7.18,7.19c2.21-1.64-5.18,2-.24.17a34.76,34.76,0,0,0,6.67-3.14c6.44-4,9.93-10.62,10.92-17.95,1.71-12.76-7.84-26.22-20.86-28.09-5.56-.8-10.38-.94-15.43,2-4.15,2.43-8.11,7.19-9.19,12-2.16,9.47,2.89,23,14,24.62Z" transform="translate(-36.05 -33.64)"/><path class="cls-4" d="M715,75.83a175.17,175.17,0,0,1-30.46,1c-9.94-.54-18.41,8-19.66,17.36-1.28,9.48,4.59,19.64,14.33,22A180.9,180.9,0,0,0,709,120.53l-10.1-37.3c-2.93,1.52-5.92,2.88-8.89,4.29-2.07,1,2.48-.91-1,.41-1.68.63-3.35,1.28-5.05,1.87a154.3,154.3,0,0,1-19,5.29l10.64,38.6,1.31-.33H666.2l-2.35-1L659.8,101c-1.8,1.8-3.63,3.56-5.55,5.23-.86.74-1.75,1.44-2.6,2.18-2.34,2,3.69-2.7-.66.47-6.68,4.86-10.71,11.36-9.56,19.95,1.13,8.42,6.7,13.62,14.34,16.64l12.2,4.82-4.78-36.58c-3.8,2.12-7.65,4.16-11.57,6.07-1.68.81-3.36,1.61-5.06,2.39l-3.41,1.52q2.88-1.19-.38.15c-9.33,3.84-15.77,11.29-14.34,22,1.34,10,9.61,17,19.66,17.36,9.63.31,19.27.55,28.91.93,5.27.2-2.88-1.24.5,0q-10.47-3.47-9.32-18.14c1.3-2.75,1.53-3.47.7-2.13-3.06,2-5.21,8.79-5.81,11.81-1.41,7.16-.18,14.15,5.15,19.48s12.2,6.32,19.47,5.15c.23,0,6.44-1,2.36-.42,1.61-.23,3.22-.4,4.82-.57s3.22-.32,4.83-.46l1.94-.15c2.82-.08,2.58-.23-.7-.44L692.1,173l.79.87-5.15-8.84c2.07,5.77,3.11,11,7.65,15.72a33.81,33.81,0,0,0,16.26,8.86c10.47,2.44,21.93,2.68,32.65,2.52,10.46-.15,20.5-9.09,20-20-.48-10.72-8.79-20.18-20-20-6.82.1-13.57-.26-20.37-.82-4.07-.33,1.43.46-.32,0-.22-.06-3.3-.58-3.29-.8q3.73,1.78,1.77.71t1.61,1.26l3.47,5.62c-.1-.64-.2-1.27-.31-1.9,0-4.92-4.8-10.21-8.48-13-4.93-3.81-10.63-5-16.74-4.57-8.23.54-16.45,1.71-24.59,3l24.62,24.63c.65-3.29-2.42,3,0,.33a19.25,19.25,0,0,0,1.83-2.59,27.67,27.67,0,0,0,4.23-13.86c.18-10.57-6.59-19.3-16-23.28-6.87-2.9-14.3-2.8-21.64-3l-21.93-.7,5.32,39.31a277.19,277.19,0,0,0,30-14.17c7-3.89,10.59-12.22,9.55-19.94-1.13-8.42-6.7-13.62-14.34-16.64l-12.2-4.82,4.78,36.58a141.33,141.33,0,0,0,16.92-14.14c9.85-9.88,6.19-24-4.06-31.44-5.42-4-12.88-4.34-19.16-2.74-10.15,2.58-17.26,14.48-14,24.62,3.5,10.81,13.64,16.33,24.62,14a174.3,174.3,0,0,0,43.53-15.89c7.52-3.89,11.81-14.55,9.2-22.6-2.85-8.82-10.14-14.08-19.3-14.7-1.9-.13-3.79-.29-5.69-.46-6.13-.54,3.86.75-2.21-.27q-5.64-.93-11.18-2.25l-5.32,39.32a176.16,176.16,0,0,0,30.46-1c10.36-1.24,20.54-8.32,20-20-.44-9.78-8.88-21.34-20-20Z" transform="translate(-36.05 -33.64)"/><path class="cls-4" d="M634.46,189.21c2.21-.75,2.22-.8,0-.16q3.74-.45.2-.45l10.11,37.3c-2.6,1.15-.94.44.79,0,1-.28,4.83-.79.52-.4,1.13-.1,2.26-.18,3.4-.19.84,0,6.1.65,1.44-.11l5.32-39.32c-14.54-.87-25.91,12.67-26.08,26.49-.18,14.61,10.87,24.46,23.73,28.9a155.82,155.82,0,0,0,28.78,7,26.41,26.41,0,0,0,20.25-5.27c8.34-6.45,11.16-19,5.17-28-4.51-6.81-11.68-10.67-20-9.55-8.47,1.13-13.56,6.71-16.64,14.33,1.68-4.14-.82,1.43-1.27,2.24-1,1.77-2.07,3.45-3.21,5.12-5.62,8.23-2.22,20.11,5.16,25.82,8.16,6.3,18.71,5.1,26.28-1.57-1.94,1.71-1.4,1.37.28,0,1.93-1.64-4.09,1.57.16-.07,3.3-1.27-.77.35-.79-.12,0-.25,4.42.09,4.6.11l-19.3-25.34c-.26,1-.56,1.91-.82,2.86-1.21,4.43,1.32-2.2.09.06-1.08,2-2.1,3.91-3.31,5.81-1.78,2.8.46-.44.43-.49a18.58,18.58,0,0,1-2,2.21c-.86.89-1.84,1.67-2.7,2.55-1.88,1.92,3.78-2.65-.1,0-8.27,5.7-12.24,15.37-8.19,25,3.78,8.94,14,14.45,23.62,11.59a50.85,50.85,0,0,0,16.66-8.09c8-6.16,12.4-15,8.18-25-3.94-9.34-13.78-13.89-23.61-11.59a30.71,30.71,0,0,0-20,16c-4.4,8.95-4.66,18.27-2.61,27.93a75.39,75.39,0,0,0,6.81,19.06c4.33,8.21,11.09,13,19.45,16.37l-8.83-33.45c-2.6,3-5.3,5.94-8.17,8.69-1.24,1.18-2.49,2.33-3.78,3.46-.6.52-6.19,5-2.56,2.24-5.81,4.44-9.92,9.55-9.92,17.29,0,7.31,3.92,13.38,9.92,17.28,6.91,4.49,14.54,4.55,22.39,3.39,1-.14,2.06-.29,3.08-.48-3.1.29-3.62.43-1.56.4-11.61-.3-17.23-17.92-8.91-25.89,4.46-4.26,1.77-1.41.1-.33a41.47,41.47,0,0,0-6.43,4.79c-5.25,5.06-7.09,10.76-7.84,17.82-1.33,12.68,13.9,23.11,25.34,19.3a14.58,14.58,0,0,1-12-3.29l4.05-31.44-26.92,14.63c-7.46,4-11.85,14.42-9.2,22.6a20.67,20.67,0,0,0,19.3,14.69c4.31.11,8.62.32,12.91.72,1.85.17,3.68.37,5.52.58-4.51-.51,3,.51,3.81.64l-8.83-33.45-17.62,20.44c-8.14,9.44-7.93,24.81,4.05,31.44a114.86,114.86,0,0,0,34.37,12.63l-12-29.41q-4.95,8.7-9.15,17.75l12-9.2c-11.4,2.52-21.2,8.17-30.11,15.54-11.91,9.85-4.68,29.76,8.83,33.45,3.54,1-.84-.59-1.72-1.35l4-31.44c-1,.54-2,1.05-3,1.53q3.24-1.35,0-.13c-1.65.44-3.26,1-4.93,1.41-1,.23-5.88.51-1.42.38-2.28.06-4.53.24-6.82.18l17.28,30.12.37-.72-7.18,7.18.7-.37-10.11,2.74-7.63-2-7.18-7.18.44.78L647.26,414q7.66-13.51,2.75-8.16l-1.14,1q3.11-2.26.36-.37c-.64.42-1.31.81-2,1.17s-1.35.72-2.06,1c2.19-.9,2.59-1.12,1.19-.64-1.14.17-6.84,1.27-1.44.66l14.15,34.16a20.18,20.18,0,0,1,1.69-1.92c.76.79-6.76,3-3.82,2.41,2.63-.53-4.2.28-1.52.19,1.11,0,.85,0-.76-.14a6.56,6.56,0,0,1-3.82-1.21l-7.18-27.38c2.75-4,.25-.53-.57.43-2.59,3,2.78-2.42-1.23.72-1.31.69-.82.53,1.49-.48a19.36,19.36,0,0,1-2.08.67c-5.08,1.44,2.94.08-1.14.22-10.45.37-20.51,8.94-20,20,.47,10.53,8.81,20.41,20,20,15.92-.56,29.18-8.31,38.1-21.39,5.72-8.39,2.11-23-7.18-27.38-13.15-6.23-30.62-5.46-40.28,6.93-5.13,6.56-7.59,13.69-4.14,21.86,2.8,6.65,10.51,13.19,18.29,12.31,14.5-1.65,31.3-7.81,38.89-21.43,5.92-10.6,4.07-25.28-7.25-31.66-10.32-5.8-24.79-3.4-30.55,7.76-7,13.55,1.61,29.74,17.28,30.12a74.46,74.46,0,0,0,36.41-8.83c10.88-5.67,13.57-23.22,4-31.44-4.91-4.24-9.63-7.21-16-8.94l8.84,33.46c-3.76,3.11,1.55-1,2.42-1.52,1.37-.82,2.83-1.47,4.22-2.24-3.86,2.15.07.05,1.17-.29,2.39-.76,4.69-1.22,7-2.2,10-4.23,13.64-17,18.72-25.94,5.92-10.42,1.06-27-12-29.4a100.86,100.86,0,0,1-14.42-3.76c-1.1-.39-2.18-.84-3.29-1.22-2.83-1,2.6,1.35-.06,0-2.34-1.21-4.73-2.3-7-3.58l4.05,31.44,17.63-20.45c4.76-5.52,7.15-12.19,5.15-19.47-1.71-6.2-7.31-12.85-14-14a232.8,232.8,0,0,0-32.89-3.37l10.1,37.3,26.92-14.62c11.58-6.29,12.71-22.41,4.05-31.44-6.76-7.06-17.56-10.13-27-7l25.33,19.3q-9,15.42-4.21,10.79c.73-.66.42-.43-.93.7-2.75,2.25-.31.4.43-.06a40,40,0,0,0,7.16-5.4c6.27-6.27,9.08-15.92,6.32-24.47a26,26,0,0,0-18.69-17,29.82,29.82,0,0,0-11.95-.53c-1.91.26-3.8.56-5.7.86,2.27-.35,4.86-.47,6.91.86v34.57c8.22-6.28,15.87-12.8,22.61-20.66,4.75-5.53,7.16-12.17,5.15-19.47s-7.29-11.25-14-14c1.78.72,5.47,1.93,5.89,4.37,0-.15-2-3.55-2-3.59,1.06.51,1.45,3.8.25.19-.53-1.56-1-3.14-1.46-4.72a43.83,43.83,0,0,1-1.15-4.65c.74,4.4.82-3.9-.11,1.73.53-3.21-1,1.57-2,2.64,3.54-3.78-8.36,3.1-3.06,1.86l-15.42-36.58c-1.53,1.18-3.4,2.05-4.88,3.25-1.29.66-1,.58,1-.24a32.28,32.28,0,0,1-3.2,1l15.43,36.58c13.06-9,22.67-21.47,26.8-37,3.61-13.51-6.48-24.13-19.3-25.33-12.18-1.15-23.59,4-32.56,11.84l31.44,24.26a86.78,86.78,0,0,0,8.51-16.92l-36.58,4.79.51.77-2.73-10.11,0,.75,2.73-10.1-.48.69,7.18-7.18q-4.1,2.75,5.8-1.27c3,.32,3.15.21.57-.3-1.75-.54-3.61-.89-5.38-1.33-4.18-1-8.38-2-12.55-3.09-1.32-.34-2.63-.76-4-1.08q-3.1-1.11,1,.5-2.77-1.66.81.91c7.5,7.84.55,22.29-10.75,21.61,9.93.6,18.41-8.07,19.66-17.35,1.2-9-4.5-20.35-14.34-22a61.76,61.76,0,0,0-37,4.77c-7.69,3.4-11.69,14.91-9.2,22.61,2.84,8.75,10.15,14.17,19.3,14.69,7.17.41,13.72-1.59,20-4.85,9.3-4.84,12.83-18.61,7.18-27.39-6.12-9.48-17.43-12.35-27.39-7.18Z" transform="translate(-36.05 -33.64)"/><path class="cls-4" d="M871.43,237.13c.48-.1,5.42-.9,3-.61s3.14-.14,3-.14a68.74,68.74,0,0,1,9.51.43L869.65,206.7l-6.81,14.16,36.59,15.42q1.13-4.23-2.79,2.76a8.31,8.31,0,0,1-5.42,5.16l-22.6-29.4c-.79,1.42-1.59,2.82-2.48,4.18-.6.93-3.69,4.12-.73,1.15-2.31,2.32-4.4,4.71-6.9,6.84-4.75,4-6.29,10.95-5.5,16.81.87,6.51,4.25,10.93,9.55,14.63l.77.53-7.18-7.18.34.72-2.73-10.1c0-5,.76-3.87-.18-1.77a21.05,21.05,0,0,0-1.06,2.91,24.28,24.28,0,0,0,.17,13.52,25.62,25.62,0,0,0,18.54,16.69c1.83.46,3.71.63,5.55,1a19.58,19.58,0,0,0,2.07.52,11,11,0,0,1-7.22-5c-1-1.45-1.22-1.75-.68-.88,1.21,2-1.63-4.74-.81-1.56q-.5-5.24-.53-2.81c-.05,1.07,0,.68.17-1.16.19-1,2.65-6.32,1-3.77l1.9-2.57q4.31-3,1.53-1.61c-7.72,3.3-11.66,15-9.2,22.6,2.64,8.16,10.28,15.08,19.3,14.7,3.21-.14-3.22-1-4.43-1.71,3.22,1.89-2.87-3.33-.36-.34-3.48-4.16-.92-1.28-.2,0l.61,1.15q1.38,2.93-.47-1.12c.26,0,1.08,3.63,1.12,3.84.15.62.71,4.36.34,1.42-.39-3.16.18,2.72.22,3.37.11,1.81.18,3.61.2,5.42q.06,5-.35,9.94c0,.51-.87,6.33-.12,1.86-.3,1.79-.59,3.57-.95,5.34a109.3,109.3,0,0,1-6.48,20.68l33.46-8.84-.69-.59,5.15,8.83L907.5,358l-8.83,5.14.82-.25H888.85l.89.18-14-24.62-13.49,34.76c-4.56,11.76,7.19,26.15,19.3,25.34l19.77-1.32-17.28-30.11c-12.79,28.67-12.32,61.08,3.5,88.6l22.61-29.41c-14.21-2.53-27.95-.73-40.69,6.25s-21,18-26.33,31c-4,9.85,4.47,22.25,14,24.62s18.27,1,27.11-3.2c9.47-4.53,12.7-18.82,7.18-27.38-6.27-9.73-17.26-12-27.38-7.18l2-.86q-2.77.65-.3.16c.82.05,5.57.74,2-.14l14,24.62c-2.18,5.32.54-.26,1.1-1.33q1.86-2.67-.71.72c.58-.71,1.18-1.4,1.81-2.07s1.28-1.31,2-1.93c1.64-1.4,1.35-1.24-.87.5.93-1.23,3.31-2.24,4.64-3,.81-.45,1.63-.86,2.46-1.25-2.68,1.09-3,1.24-.94.47,1.77-.48,3.53-1,5.31-1.42,2.22-.37,1.8-.32-1.24.16.91-.07,1.82-.11,2.74-.11s1.83,0,2.74.09q-4.56-.74-1.23-.15c8.14,1.44,15.77-.36,21-7.18a20.12,20.12,0,0,0,1.57-22.23c-1.35-2.34-2.58-4.72-3.7-7.18,1.13,2.49.61,1.47-.07-.47-.45-1.27-.87-2.55-1.25-3.84-.76-2.6-1.31-5.22-1.86-7.87-.8-3.85.07,2.22-.07-.28-.08-1.34-.25-2.68-.32-4a78,78,0,0,1,0-8.09c.06-1.07.16-2.15.25-3.22.4-5.09-.64,2.56,0-.28.64-2.62,1.06-5.27,1.82-7.87.37-1.29.78-2.58,1.23-3.85.35-1,2.31-5.47.41-1.21,3-6.74,3.91-13.51,0-20.2-3.38-5.78-10.38-10.38-17.29-9.92l-19.77,1.32,19.3,25.34,13.49-34.76c3.74-9.62-4.16-22.64-14-24.63-10-2-20.39,1.29-25.54,10.63-4.76,8.64-4,20.72,3.79,27.46,5.49,4.77,12.21,7.15,19.47,5.15s11.17-7.3,14-14a120.21,120.21,0,0,0,8.84-57.48c-2-20-12.51-44-36.57-43l10.1,37.29c18.74-8,19-35.25,5.66-47.8a27.29,27.29,0,0,0-13.24-6.65c-1.3-.27-2.62-.42-3.92-.69-2.2-.46-3.5-1.69.9.8,11,6.25,4.73,25.43,8.33,15.09a20.82,20.82,0,0,0,1.61-8c-.08-8.56-4.15-14.63-11-19.42l4.05,31.44A73.11,73.11,0,0,0,903.18,235c8.5-15.41-5.51-33.67-22.6-29.4-9.48,2.37-17.82,10.31-19.76,20-2,9.88,2,19.57,11.59,23.61,8.53,3.6,20.67.82,25-8.19l6.81-14.16c3.17-6.59,3.84-13.64,0-20.2s-10.05-9.13-17.28-9.92a83,83,0,0,0-26.15,1.74c-10.26,2.16-17.17,14.78-14,24.63,3.51,10.84,13.63,16.29,24.62,14Z" transform="translate(-36.05 -33.64)"/><path class="cls-4" d="M1007.21,363.65,1019,362l-19.47-33.46q-16.53,15-34.13,28.74l31.43,24.25c.79-1.38,1.62-2.71,2.53-4-2.68,3.88.71-.53,1.53-1.31.56-.56,1.15-1.09,1.76-1.6-1.79,1.31-2.1,1.55-.91.73,1.6-.93,3.11-2,4.76-2.82L979.13,345.1c-9.61,15.83-12.14,45.32,10.33,51.7,16.33,4.63,35.23-6.72,42.49-21.19,3.69-7.35,3.59-15.56-1.56-22.23-4.44-5.75-13.72-10.15-21-7.18a68.24,68.24,0,0,0-20,11.92c-8.47,7.24-6.85,20.84,0,28.31l6.75,7.36c.9,1,1.78,2,2.7,2.95,4,4.16-1.19-2.9.45.77l-2.74-10.11q.9-8.1,7-12.17l-2,1.16a34.45,34.45,0,0,0-6.62,5.22c-7.24,7.57-8.09,20.88,0,28.3,7.84,7.2,20.57,8.09,28.3,0,2.26-2.36-4,2.81.48-.11a40.47,40.47,0,0,0,5.78-4.38,23.6,23.6,0,0,0,7-18c-.46-12.28-11.17-20.86-18.88-29.28v28.31c3.73-3.19-3.17,1.49,1.2-.77.94-.48,5.35-2.58,1.1-.86l-22.6-29.4a20,20,0,0,1-1.34,2.45l1.47-1.8a21.75,21.75,0,0,1-1.95,2c2.08-1.49,2.51-1.82,1.28-1a14.78,14.78,0,0,1-1.8,1.08c2.46-.93,3-1.15,1.57-.66-4.66,1,1.27,0,2.74.47l8.83,5.14-1-1,5.14,8.83c-1.86-4.5.67,4.53-.32-.61l0-1.59q-.65,3.62-.21,1.37c.19-.68.49-3.56,1-3.84l-.79,1.84a27,27,0,0,1,1.57-2.77c4.43-7.3,3.29-18.36-3.13-24.25a20.79,20.79,0,0,0-24.25-3.13,59.87,59.87,0,0,0-24,23.38,20.09,20.09,0,0,0,5.15,25.82c8.52,6.57,18.29,4.66,26.28-1.57q17.61-13.71,34.13-28.73c6.29-5.72,7.75-17.1,3.13-24.26-5.25-8.15-13.37-10.51-22.6-9.2l-11.81,1.69c-10.41,1.48-17,15.24-14,24.62,3.68,11.39,13.47,15.57,24.62,14Z" transform="translate(-36.05 -33.64)"/><path class="cls-4" d="M1111.45,369.87l2.44,1V336.34c-3.3,2.54-5.76,4-7.82,7.76a24.27,24.27,0,0,0-2.54,6,25.67,25.67,0,0,0,.2,12.88c1.92,7,7.52,12.79,14,15.86a15,15,0,0,0,7.44,2.38,15.26,15.26,0,0,0,8-.36c4.65-1.28,9.68-4.87,12-9.2,2.45-4.65,3.68-10.27,2-15.42-1.53-4.73-4.54-9.74-9.19-12a20.28,20.28,0,0,1-2.85-1.58l4,3.13a10,10,0,0,1-1.17-1.08l3.13,4.05a6,6,0,0,1-.74-1.24l2,4.79a4.66,4.66,0,0,1-.23-.89l.72,5.32a3.46,3.46,0,0,1,0-.91l-.72,5.32a3.22,3.22,0,0,1,.18-.86l-2,4.78a3,3,0,0,1,.4-.75l-3.13,4.05.29-.32-4,3.13.35-.27a20,20,0,0,0,0-34.56l-2.44-1a22.46,22.46,0,0,0-15.42-2c-4.64,1.27-9.68,4.86-12,9.19-2.46,4.65-3.69,10.28-2,15.43,1.48,4.59,4.54,10,9.2,12Z" transform="translate(-36.05 -33.64)"/><path class="cls-4" d="M1115.73,386.35l.62,1-2.74-10.1,9.9-13.52-1.79.69a30.67,30.67,0,0,0-4.46,1.73l-8,3.1c-9.4,3.64-15.75,11.45-14.34,22,1.19,8.85,9.77,18.6,19.66,17.36,7.52-.94,15.07-1.7,22.64-2.21,3.34-.23,6.69-.44,10-.36,1.07,0,6.12.86,1.85,0l1.75.37c2.49.71,2.33.62-.49-.29l-7.18-7.18-1-2.65V385.55l6.78-8.64a17.47,17.47,0,0,1-1.6,1,19.91,19.91,0,0,0-2.27,1.23,52.63,52.63,0,0,0-9,6.95c-4.3,4.05-8.42,8.32-12.62,12.49-7.44,7.39-7.94,21,0,28.31s20.37,7.88,28.31,0l9.57-9.5c1.41-1.4,3-3.6,4.78-4.57-4,2.21-.14.51.84-.05,13.3-7.58,19.27-23.07,9.18-36.13-7.52-9.73-22-11-33.46-10.62-9.41.33-18.82,1.35-28.15,2.52l5.32,39.31c7-2.72,15.6-4.83,21.94-8.91,10.8-7,15.7-21.37,8.49-32.76-5.59-8.84-18.08-13.18-27.39-7.18-8.84,5.7-13.17,17.92-7.18,27.38Z" transform="translate(-36.05 -33.64)"/><path class="cls-4" d="M1277.18,239.45l27.53,3.55-17.28-30.12c-.81,1.43-1.69,2.77-2.55,4.17,1.73-2.84.23-.32-1,1l28.3,28.31-19,2.36q-12-10-5.64-18.94c2.71-4.78.6-1.62-.82-.38-6.73,5.88-7.23,16.85-3.13,24.25,2.41,4.34-2.16-3.74.29.56l.36,1.41q-.39-4-.27-1.72c-.28,2.84-.06,1.92.26-.35-.55,1.72-.53,1.81,0,.26a5.58,5.58,0,0,1,2.06-3c-2.44,2.5,2.86-1.7.79-.49s4.27-1.16.87-.45c3.16-.29,3.94-.41,2.36-.37s-.8.12,2.41.41c-3.16-.62,3.13,1.64,3.84,2.32-4.9-4.61-12.79-7.63-19.47-5.15-16,5.92-28.3,20.44-27.42,38.28.84,16.9,13.31,32.67,30.17,36.11l-4.78-36.58-20.17,10.23c-5.76,2.92-10.56,5.82-13.23,12.13-2.45,5.82-2.27,12.28-1,18.37,1.54,7.22,5.47,13.57,9.65,19.52.93,1.32,1.87,2.62,2.71,4,.58.95,2.49,5.34.93,1.08.22.6,1.43,5,.82,1.93-.15-1.64-.19-1.51-.12.37a8.44,8.44,0,0,1,1-4.38c-7.55,14.18,2.11,28.77,17.29,30.11l5.91.53,2.54.23a12.68,12.68,0,0,1-8.6-4.14l-5.15-8.83.36.92V356.34l3.62-5.89-1.27,1.24c-.37.25-3.91,3.48-2,1.88,1.63-1.37-1.2.84-1.52,1.06-1.23.84-2.48,1.6-3.75,2.36-7.32,4.39-11.92,14.18-9.19,22.61,2.5,7.73,10.43,15.7,19.3,14.69a41.46,41.46,0,0,1,5.46-.32c.82,0,1.68.14,2.5.11,2.68-.11-4.28-.24-1.7-.16,2.86.08.8.28-1-.72,2.35,1.31-1-.89-1.46-1.33a12.75,12.75,0,0,1-3-5.31c-.45-1.62.29-7.16-.48-1.44-1,7.45.07,14.74,4.21,21.17a66,66,0,0,0,6.16,7.7c.46.52,2.08,2.93.64.6-.83-1.15-1-1.27-.36-.38.74,1.27.58.71-.5-1.65-.29,1,1.28,4.38,1.58,5.49a54.23,54.23,0,0,0,3.54,9.44c3.4,7,9.72,12,16.91,14.68,12,4.55,25.46-.34,35.72-6.89L1314,407.89c-3.47,7.22-6.77,14.81-6.07,23,.82,9.64,5.58,18.91,14.21,23.87,7.07,4.07,17,4.82,24.5,1.37q4.13-1.17-5.61-.43l-3.2-1.29-2.77-2c-2-2.83-2.64-3.57-1.84-2.21,1,1.47.63,3.35-.59-1.71a18.22,18.22,0,0,0,.9,2.32c2.18,5.55,4.18,10.38,8.48,14.65a25.08,25.08,0,0,0,25.06,5.87c9-3,14-9.85,19.22-17.26l11.19-15.8-36.58-4.78c.84,5.57,1,11.73,2.74,17.12,3.85,12.29,15.17,19.27,27.86,16.88,12.25-2.31,19.21-14.35,26.81-23,1.57-1.79,3.25-3.44,5-5.11,2.16-2.1-.07.6-.79.49a32.82,32.82,0,0,0,3.56-2.2c2.49-1.41-.36-.24-.57.25.2-.46,4.57-1.2,5-1.31,2.44-.57,4.88-1.1,7.26-1.9,13.9-4.68,24.31-13.09,33.13-24.6l-37.3-10.1.8,15.81c.41,8.1,4.7,15.08,12.3,18.29,7.1,3,16.44,1.77,21.87-4.14,1.1-1.2,2.22-2.39,3.39-3.52.4-.38,4.85-4.38,2.9-2.71s2.08-1.45,2.59-1.79c1.59-1,3.22-2,4.88-2.94L1455,411.84c2.06,3,0-2.16.42,0,.54,2.74,0-4.9-.1,0-.37,17.3,22.18,26.47,34.17,14.16a9.56,9.56,0,0,1-5.45,2.33c-1.11.13-5.54-.83-2.53.38l-12-29.4q-4.68,9.24-10,18.16c-8.68,14.69,5.76,34.64,22.6,29.4,1.09-.33,2.19-.6,3.27-.93,3.6-1.12-1.7-.2.55-.21a74.73,74.73,0,0,1,7.63.15l-14.15-34.17-21.41,18c-11.1,9.34-5.44,30.8,8.84,33.45,3.13.58-1.81-1-2.76-1.71-1.73-1.28-2.36-2.61-3.56-4.27q-1-2.54-.27-.12l-.48-2.9.47-2.91q-.69,2.34.13,0c.38-.62,2.62-3.38,1.37-2.39-3.37,2.66.28.43.09.09,0,.06-2.4,1.36-2.6,1.47-4.28,2.41,3.84-1.37-.73.28-7.65,2.77-13.22,8.3-14.34,16.64a20.16,20.16,0,0,0,9.56,19.95,10.83,10.83,0,0,1-4.47-12.48c1.56-5,5.45-7.1,10.63-7.63-8.17.84-14.94,4.36-18.29,12.3a20.27,20.27,0,0,0,4.14,21.87l.75.82-5.14-8.84,1.67-11.54,1.51-2.15a50.09,50.09,0,0,1,4.3-2.62c0,.47-5.74,1.16-6.55,1.32-2.83.56,3.73-.45.85-.09l-3,.37c-3.52.45-7,.88-10.53,1.42a54.56,54.56,0,0,0-28.55,13.09l24.26-3.13c-15.89-7.26-33.78-9.49-50.44-3.13l25.33,19.31c.5-17.63-14.25-33-31.72-33.87a32.51,32.51,0,0,0-10.87,1.35,26.33,26.33,0,0,0-3.94,1.41c-2.9.81-1,.94,5.79.38l9.45,21.88c2.8-1.66,4-10.82,4.14-13.78a26.33,26.33,0,0,0-4.06-14.23c-8-12.67-24.4-18-38.79-17.79s-27.39,5.75-38.24,15.06c-6.41,5.5-7.67,17.26-3.13,24.25A26.24,26.24,0,0,0,1305,502.49a16.22,16.22,0,0,0,2.18.45l1,.29-11.13-18c.11-.62,1.12-4.07.4-1.56s-.07-1,1.1-1.3c-.9.26-2.47,2.6-3.24,3.29-.41.37-1.58,1-1.79,1.52.25-.58,3.53-2.59,1.21-1-2.77,1.95-5.56,3.88-8.29,5.89-7.61,5.62-14.45,11.58-18.22,20.51a44.49,44.49,0,0,0-3.29,15.12,47.07,47.07,0,0,0-.22,5.3c.16,2.53.75-3.9.17-1.63-.29,1-.16.78.4-.79a11,11,0,0,1,5.21-6.26c-8.85,5.58-13.17,18.09-7.18,27.38,5.71,8.87,17.91,13.15,27.38,7.18a28.63,28.63,0,0,0,13-18,55.48,55.48,0,0,0,1.13-10.48c0-1.1.1-2.21.13-3.32.07-3.22.22,1.38-.23,1.67,0,0,1.49-4.64.07-.69-1.33,3.68.51,0,.53-.43-.06,1.1-3.33,3.53-.73,1.11.69-.63,1.31-1.32,2-1.94a10.53,10.53,0,0,0,1.75-1.48c-1.73,2.73-2.75,2-.79.66l4.89-3.45c8.77-6.18,17.35-12.87,21.64-23,4.08-9.67,3.26-20-3.92-28.05a25.53,25.53,0,0,0-11.39-6.81c-.7-.22-1.42-.35-2.14-.52-6.3-1.46,2.45-.06,6.7,6.49l-3.13,24.26c2.52-2.17-.6.43-.61.42s2.28-1.44,2.48-1.56,2.6-1.26,2.59-1.34c.06.39-3.9,1.3-.71.39.91-.26,5.22-.79,5.68-1.42-.46.63-4.11.26-1,.23,1,0,2-.07,2.92-.05.51,0,2.56.44,2.92.18-.68.49-4-.85-1,0,.93.26,1.88.51,2.82.75,3.08.78-.61.21-.69-.45,0,0,2.39,1.37,2.41,1.36-.72.33-3.07-2.82-3.33-3.32l-1.29-10.57.84-2.37c-.4,2.2-2.32,4.31-2.92,6.55-4.67,17.52,10,33.29,27.79,30.91a41.73,41.73,0,0,0,8.24-2c1-.34,4-.56,1-.53-.58,0-5-.25-3.43,0s-2.1-1.17-2.7-1.48c-3.54-1.82,2.49,1.36-.72-.84-.83-1.18-1-1.32-.41-.41s.47.75-.19-.6c-.17-.8-.79-5.85-.89-2.55-.33,12.06,13.22,23.93,25.34,19.3a45.73,45.73,0,0,1,7-2.15c.8-.18,1.61-.33,2.42-.45l-2.07.33c.86-.53,3.14-.14,4.09-.12,1.1,0,2.19.14,3.27.16,2.37,0-3.35-.88.35.15,1,.29,2.12.5,3.17.82.74.22,5.53,2.27,1.32.35,8.66,4,17,3.25,24.26-3.13,3.36-3-3.41,1.65.55-.25,4.26-2-4.2,1.06.38-.28,2.33-.68,4.63-1.33,7-1.78a34.59,34.59,0,0,1,4.41-.7c-5.39.3-.35.07.66-.06,4-.51,8-1,12-1.68,8.22-1.42,15.71-5,20.9-11.69,7.72-10,7.43-22.57-1.26-32l-14.15,34.17c13-1.34,24.44-8.44,28-21.75,3.42-12.9-2.9-25.93-13.93-32.74l-4.78,36.58c13.26-4.78,26.6-13.13,29.79-28,3.25-15.17-5-33.68-21.45-36.74l8.83,33.46,21.4-18c6.07-5.1,7-15.09,4.14-21.87-3.29-7.81-10.11-11.5-18.29-12.3a57,57,0,0,0-22.09,2.42l22.61,29.41q5.26-8.92,9.94-18.17c6.34-12.52.44-24.42-12-29.4-10.53-4.23-23.29-.31-31,7.58l34.17,14.15a34.61,34.61,0,0,0-5.78-20.17c-6.28-9-17.31-12.82-27.39-7.18a88.75,88.75,0,0,0-21.87,17.21l34.17,14.16-.8-15.81c-.43-8.51-5.88-17.3-14.69-19.3-9.46-2.16-16.94,1.8-22.61,9.2,3.16-4.12-1.14.91-1.9,1.62-1,.94-3.34,4.28-.63.74-.79,1-2.69,1.79-3.84,2.45-.88.5-1.78,1-2.69,1.41,2.47-1,2.67-1.06.58-.26-7.88,2.35-16,3.67-23.24,7.91a65,65,0,0,0-16.47,14.6c-2.19,2.61-4.27,5.31-6.47,7.9-.94,1.1-1.9,2.19-2.89,3.25-.65.7-1.32,1.38-2,2a17.35,17.35,0,0,1,4.1-2.68h10.64l2.64,1.07,7.18,7.18c-.88-1.32-.88-1.18,0,.39q1,2.52.43.13c.13-1.44-.48-3.22-.7-4.63l-1.53-10.18c-1.16-7.67-9.69-13.4-16.64-14.34-8.38-1.12-15.18,2.83-19.94,9.56l-7.84,11.06-3.91,5.53-1.68,2.37c1.72-2.1,1.84-2.35.36-.73,6.18-5.08,14.68-4.74,19.9.28,2.16,3,2.73,3.65,1.69,1.89q-1.29-2.73.87,2.16c.06-.72-.83-2.14-1.08-2.78a63,63,0,0,0-3-7c-5-9.2-14.2-15-24.75-14.57a32.38,32.38,0,0,0-8.21,1.5c-1,.34-1.93.65-2.91.92q9.51-1.62,14.34,5.94c0-.05,1.94,7.23.73,6.8a22.65,22.65,0,0,1,1-3.32c-.88,2.08-.83,2.08.13,0,3.75-7.8,3.74-18-3.13-24.26-6.39-5.86-16.57-8-24.25-3.13-1.71,1.09-3.45,2.09-5.24,3-3,1.59.56-.23.55-.24,0,.24-2.73.57-2.84.78.23-.42,4.35-.46,1.16-.42,4-.05,5.72,2.56,8.74,4.25.8,1.18.92,1.31.37.38s-.45-.78.17.52c.74,2.81.06-.36-.1-.92-1.33-4.83-2.62-9.79-5.3-14.09a58.21,58.21,0,0,0-5.62-7.29c-.59-.69-1.18-1.43-1.83-2.06-1.53-1.52,2,3.86.32.32a15.63,15.63,0,0,1,1.4,4.62l-.26,1.68.72-5.32a28.55,28.55,0,0,0-.86-10c-1.9-6.81-6.37-12.22-12.1-16.16-7.66-5.25-18.22-6.54-27.28-5.5l10.1,37.3c11.58-6.93,25.72-17.33,23.67-32.56-1.24-9.26-8-16.31-16.91-18.84-5.33-1.53-11.56-1.42-17.1-1.92l17.28,30.12c6.68-12.52,5-25.89-1.78-38-2.11-3.78-4.93-7.11-7.2-10.8-.52-.84-3.72-7.1-1.42-2.35q-.81-3.36-.08.84A13.82,13.82,0,0,1,1280,315l-9.91,17.28,25.2-12.79c14.94-7.58,11.86-33.19-4.78-36.58a18.63,18.63,0,0,1-2.65-.65q3.68,1.69,1.69.63a14.71,14.71,0,0,1-1.73-1.08q3.06,2.44,1.46.91c-1-1.08-.7-.6,1,1.43a19.74,19.74,0,0,1-1.39-2.34l1,2.26c-.54-2.17-.56-1.73-.08,1.33,0-.11.94-7.18-.27-.09.68-4-2,2.93,0-.26,2.29-3.67-2.44,2.73.2-.25q2.43-2.16-.84.62,2.88-1.54-1.08.3l-19.48-5.15a33,33,0,0,0,45.51-.55c12.56-12.49,12.55-31.77,4.36-46.55L1315,257.7c10.61-9.27,14.64-25.25,5.55-37-8.31-10.75-27.23-14.53-36.65-2.63-3.43,4.33-5.86,8.4-5.86,14.15,0,4.91,2.18,10.78,5.86,14.16,7.69,7,20.77,8.26,28.3,0a71.73,71.73,0,0,0,9.78-13.28,20.27,20.27,0,0,0,0-20.2c-3.91-6.69-10-9-17.28-9.91l-27.53-3.55c-10.43-1.35-20.46,10.16-20,20,.54,12,8.85,18.58,20,20Z" transform="translate(-36.05 -33.64)"/><path class="cls-4" d="M1442.37,232.83l3.57-1.93-29.41-22.61c-.73,3-1.76,5.89-2.69,8.84s2.07-4-.31.62c-.77,1.5-1.53,3-2.36,4.46a20.18,20.18,0,0,0,1.57,22.23c5.15,6.67,12.93,8.73,21,7.17l19.79-3.8-19.47-33.45c-7.49,7.58-16.47,16-19.46,26.5a23.19,23.19,0,0,0,6.6,23,24,24,0,0,0,10.84,5.73c2.13.36,4.28.64,6.43.82q7.32.69-9.39-4.24l-5.14-8.83,1.1-10.07-.73,1.33c-1.33,1.84-2.3,5-2.92,7.12a47.23,47.23,0,0,0-1.49,11.17c0,1.2-.78,5.62-.15,6.53l.3-2.56c-.52,1.73-.48,1.8.14.22,1.3-1.79,1.88-3.41,4-4.67-7.33,4.39-11.93,14.18-9.2,22.61,2.52,7.8,10.4,15.6,19.3,14.69l6.19-.63-20-20q-.15,5.22,1.45-3.62c-2.94,6.79-4,13.45,0,20.2a20.31,20.31,0,0,0,17.28,9.92l1,0-10.1-2.73.84.6-7.18-7.18.54.95-2.74-10.1q7.64-13.91,2.26-8.27l-2,1.9-2,1.9q-3.16,2.92,1-.72l10.1-2.73q9.42,2.85,4.19.54l-2.46-1.19-5.76-2.78c-9.41-4.56-22.07-2.89-27.38,7.18-4.74,9-2.89,22.51,7.18,27.38,5.65,2.74,11.55,6.38,17.58,8.11,10.42,3,18.73-2.62,25.9-9.39,6.09-5.74,11.94-12.4,11.54-21.39-.56-12.49-10-21.81-22.44-22.13l17.28,30.11c2.35-5.44,4.12-10.55,4-16.58-.16-10-9.08-21.13-20-20l-6.19.63,10.1,37.3a31.3,31.3,0,0,0,14.27-19.47,50.46,50.46,0,0,0,1.25-11.17c0-1.42.16-2.9.07-4.3.07-1.19,0-1.15-.09.13a4,4,0,0,1-1,2.63c.52-.27,1.18-2.15,1.45-2.7,1.89-3.81,3.16-7.16,3.25-11.47a22.86,22.86,0,0,0-4.63-14.74,24,24,0,0,0-12.45-8.46,30.71,30.71,0,0,0-6.91-1c-3.67-.24,4.52,1.33,1.08,0l8.83,5.14,1.71,2.36L1454,248c0,.37-1.24,6.78-2.57,6.72.33,0,3.27-3.82,3.54-4.13,2.4-2.72,4.9-5.34,7.44-7.92,6-6.09,7.93-16.82,3.13-24.26-5.09-7.9-13.51-10.94-22.6-9.2l-19.8,3.8,22.61,29.41a94.47,94.47,0,0,0,9.4-23.48c4.2-17.18-13.93-31-29.41-22.61l-3.57,1.94c-9.21,5-12.91,18.5-7.18,27.38,6,9.35,17.53,12.53,27.39,7.18Z" transform="translate(-36.05 -33.64)"/><path class="cls-5" d="M482.25,600.3q-1.35,23-1.72,46.12c-.2,12.36,13,23.55,25.33,19.3.44-.15,2.49-.49,2.7-.8l-2.52.42c1.83.09,1.88,0,.14-.11-3.57-1.84,2.52,1.43-1-.23-3.15-1.48,3,3-1.73-1.13l-5.86-14.15c5,84.2,7.88,168.74,7,253.1,0,1,0,2.06-.05,3.09,0,.75-.82,4.87-.06,2s-.31.36-.44,1.07c-.35,1.07-.29,1,.16-.33a5.14,5.14,0,0,1,1.71-2.71c.41-.44,3.41-2.29.14-.08-.91.63-1.84,1.23-2.75,1.87A39.41,39.41,0,0,0,492.89,918c-6.5,9.45-7.44,21.42-6.94,32.55.46,10.45,8.87,20.51,20,20,10.45-.47,20.51-8.82,20-20-.1-2.23-.18-4.46-.13-6.69,0-1,.14-2,.15-3,0-2.8-1.46,4.52,0,.23.12-.34.82-2.71.8-2.74.34.52-2.34,4.07-.18,1-2.6,3.7-1,1.68-.39.82-1.65,1.25-1.89,1.48-.71.67l2.08-1.39c12.74-9,16.84-21.56,17-36.67.22-23.59,0-47.2-.36-70.79q-1-70.77-4.43-141.49c-.64-13.27-1.11-26.58-2.14-39.83-1-12.34-8.89-19.8-20.1-23.6a35.62,35.62,0,0,0-22.36,0l25.34,19.3q.36-23.08,1.72-46.12c.61-10.47-9.65-20.48-20-20-11.37.51-19.36,8.8-20,20Z" transform="translate(-36.05 -33.64)"/><path class="cls-5" d="M656.54,803.47c6.72-14,13.52-28.07,18-42.93a130.82,130.82,0,0,0,5.1-45.76c-1-15.17-3.81-30.2-6.65-45.11-1.37-7.24-2.69-14.49-3.84-21.77-.7-4.41.25,2.9-.27-2-.19-1.82-.41-3.64-.58-5.46q-.48-5.47-.61-11c-.28-10.46-9-20.51-20-20-10.61.47-20.31,8.8-20,20,.39,14.94,2.81,29.79,5.54,44.45,1.3,6.94,2.68,13.87,3.89,20.83.53,3,1,6,1.47,9,.75,4.84-.22-2.54.24,1.9.19,1.81.39,3.61.55,5.42a133.18,133.18,0,0,1,.33,19.87c-.11,1.82-.29,3.62-.48,5.42.32-3,.07-.63-.23,1-.59,3.3-1.35,6.57-2.25,9.81-1,3.53-2.12,7-3.37,10.46-.52,1.43-1.07,2.86-1.63,4.29s-1.54,3.82-.42,1.18c-2.86,6.79-6.1,13.42-9.29,20.06-4.54,9.42-2.9,22.06,7.18,27.39,9,4.73,22.53,2.89,27.38-7.18Z" transform="translate(-36.05 -33.64)"/><path class="cls-5" d="M834.55,629.71C812.36,639.58,790,651.4,777.07,673c-7.15,11.94-10.44,25.66-13.11,39.17-2.86,14.44-5,29-6.91,43.6A777.51,777.51,0,0,0,751.3,837c-.3,13.29-.76,26.69.85,39.91C754,892,758.5,905.63,765,919.38c11.5,24.39,26.85,52.17,51.35,65.44,9.2,5,22.22,2.59,27.38-7.18,4.94-9.33,2.66-22.06-7.18-27.38-1.29-.7-5.84-2.53-6.5-4.06.64,1.5,2.2,1.93.48.28-1.11-1.05-2.28-2-3.36-3.12-1.46-1.44-2.84-3-4.17-4.51-.58-.68-4.14-4.28-.74-.81a27.14,27.14,0,0,1-2.72-3.81,270.5,270.5,0,0,1-16-27.08c-1.38-2.63-2.72-5.29-4-8-.64-1.34-1.23-2.7-1.85-4-1.42-3.1,1.51,4.36-.35-1a119.39,119.39,0,0,1-5-17c-.24-1.23-.45-2.47-.64-3.71.67,4.45-.1-1.69-.13-2.15-.21-2.5-.33-5-.41-7.52-.22-6.66-.1-13.33,0-20,.4-25.23,1.69-50.45,4.41-75.54q.46-4.35,1-8.67c.24-1.93.48-3.85.73-5.78-.11.86-.51,3.6.07-.44.92-6.4,1.91-12.79,3-19.15,2.11-12,4.39-24,8.35-35.59.3-.86,1.68-3.24,0-.06.82-1.54,1.53-3.13,2.4-4.65.68-1.17,1.41-2.32,2.17-3.44,2.86-4.19-1.64,1.35,1.09-1.39,1.8-1.8,3.47-3.7,5.37-5.41,1-.85,2-1.64,2.92-2.47s.79-.65-1,.78c.62-.46,1.25-.91,1.88-1.34,9.66-6.72,20.44-11.61,31.15-16.38,9.6-4.27,12.6-19,7.18-27.38-6.4-9.94-17.11-11.75-27.38-7.18Z" transform="translate(-36.05 -33.64)"/><path class="cls-5" d="M863,691.66c2.46,2.87-1.16-2.09.86,1.1,1,1.61,2,3.2,2.93,4.88.36.67,2.32,4.89,1.43,2.77s.09.31.2.65c.36,1,.73,2.07,1.06,3.11A86,86,0,0,1,872,714.64c.17.94.31,1.88.48,2.82-.07-.37-.31-3-.08-.6.22,2.21.46,4.42.63,6.64,1.26,16.8,1.46,33.71,2.35,50.54,1.77,33.61,3.57,67.42-.32,101-.11.92-.23,1.84-.33,2.76.23-2,.23-1.57,0,.19-.32,2.14-.65,4.28-1,6.41-.78,4.56-1.67,9.1-2.7,13.61a217.53,217.53,0,0,1-7.89,26.59c-3.61,9.84,4,22.36,14,24.62,11.31,2.58,20.75-3.44,24.62-14,12.28-33.43,15.76-69.67,15.71-105.08,0-18-.95-36.09-1.9-54.11-.94-17.79-1.1-35.71-2.52-53.46-1.76-21.9-7.18-42.24-21.73-59.19-6.85-8-21.38-7.55-28.31,0-7.79,8.49-7.3,19.8,0,28.3Z" transform="translate(-36.05 -33.64)"/><path class="cls-5" d="M985.47,647.5a230,230,0,0,0-4.83,35.93c-.37,7.16-.46,14.49,3.18,21a24.37,24.37,0,0,0,15.81,11.52l1.32.27q2.28.52-1.92-.68l-7.18-7.18c-.11-.19-1.23-8.6-1.44-5.16a22.83,22.83,0,0,0,.22,3c.15,2,.29,4,.44,5.92q.51,6.93,1,13.84.91,12.86,1.63,25.72c.93,17.14,1.5,34.31,1.31,51.48-.37,33.88-4.07,67.69-2.81,101.59.17,4.69.6,9.38.67,14.08,0,.9,0,1.8,0,2.69,0,.49-.49,4.08,0,1.78s-.23.57-.32.84c-.33,1-.69,2-1,3,1.19-3.73-.29.37-1,1.82q-2,4.14-3.67,8.41a37.72,37.72,0,0,0-2.76,15.84c.57,10.44,8.81,20.52,20,20,10.36-.47,20.62-8.82,20-20-.18-3.35,0,.79-.52.72,0,0,.5-2.1.54-2.24.08-.3.45-2.09.72-2.21-.1,0-2,4.35-.12.41a113.53,113.53,0,0,0,5.9-13.6c3.08-9.26,2.16-19.05,1.73-28.59-.86-18.73-.12-37.48.8-56.19,1.84-37.37,2.24-74.34-.12-111.7-.64-10.22-1.39-20.44-2.15-30.65-.52-7-.6-14.08-4.11-20.39a22.45,22.45,0,0,0-10.94-9.53,34.44,34.44,0,0,0-3.59-1.45c-2.22-.63-3.61-1.73-.18.4l7.18,7.18q1.34,9.66,1.21,5.42c0-.88,0-1.75,0-2.62,0-1.25.08-2.5.14-3.75.16-3.43.42-6.85.76-10.27.16-1.55.34-3.11.53-4.66-.37,3,0,.34.23-1.16.55-3.4,1.2-6.77,1.92-10.13,2.18-10.21-3-22.12-14-24.62-10.06-2.29-22.29,3-24.62,14Z" transform="translate(-36.05 -33.64)"/><path class="cls-5" d="M1207.45,591.27c-.16,1-.38,2-.59,2.93-.7,3.33.1-.78.34-.65-.08,0-1.33,2.53-1.59,2.55.3,0,2.5-2.74.17-.61-2.12,1.94.34.55.56-.21-.16.53-2.28,1.48-2.75,1.74a33.79,33.79,0,0,1-3.12,1.58c1.8-.8,1.61-.63-.13-.14-9.33,2.61-18.82,3.59-27.67,7.78a34.77,34.77,0,0,0-19.31,25.54c-1.82,10.22-3.41,20.48-5.11,30.72-2.22,13.34,5.35,24.42,19.3,25.33l-11.94-6.48.73,1.17c.4,1,1.09,2.05,1.58,3,.16.3,1.38,2.83.36.63s.31.87.52,1.46a106.64,106.64,0,0,1,3.25,12.8c.51,2.33-.08-1-.13-1.19a19.07,19.07,0,0,1,.35,3.33c.19,2.24.31,4.49.38,6.74.14,4.26.06,8.53-.12,12.79-.82,18.94-3,37.83-4,56.77-2.22,40.15-2.54,80.38-2.08,120.59.13,11.53.27,23.07.55,34.61.3,12.39,3.86,26.87,16.28,32.57,9.49,4.36,22,3,27.38-7.18,4.66-8.8,3-22.72-7.18-27.38-3.84-1.77,6.21,4.87,3.91,5.57a26.51,26.51,0,0,1-.6-2.6c.21.33.09,3.94.35,2,.67-5-.26-10.77-.35-15.81q-.26-15.33-.4-30.65c-.17-20.77-.12-41.54.32-62.3.43-20.43,1.24-40.84,2.56-61.23,1.23-18.89,4-37.91,3.48-56.87-.57-22.71-6.69-60.44-35.16-62.3l19.3,25.34c1.66-10,3.25-20,5-30,.17-1,.41-2,.55-3,.31-2.24.22-1-.56.47,1.21-2.3-.16,0-.85.91,2-2.55-.85,1.11-1,.75,0,.06,2.16-1.36,2.32-1.23s-4.21,1.39-1,.59c2-.5,4-1.06,6.07-1.48,20.91-4.2,44.91-14.27,48.7-38.27,1.62-10.3-2.63-22-14-24.62-9.59-2.18-22.88,2.92-24.62,14Z" transform="translate(-36.05 -33.64)"/><path class="cls-5" d="M1374.2,666.09c10.47,0,20.5-9.21,20-20s-8.8-20-20-20c-10.47,0-20.5,9.21-20,20s8.8,20,20,20Z" transform="translate(-36.05 -33.64)"/><path class="cls-5" d="M1347.19,626.63c-22.41,13.67-43.68,28.92-53.46,54.28-5.32,13.79-3.87,28.16-1.64,42.4,1.39,8.88,5.46,17.12,13.37,22,5.71,3.5,11.79,4.69,18.27,5.68,13,2,27.07,4.34,40.25,2.81,14-1.63,25.66-8.77,32.6-21.26a97.88,97.88,0,0,0,6-13.88c.63-1.69,1.22-3.4,1.83-5.1.41-1.12.85-2.24,1.26-3.37,1.3-3.55-2,4-.17.43.9-1.7,1.81-3.34,2.8-5,1.31-2.18.59,1-1.08,1.4a14.83,14.83,0,0,0,1.56-1.59c2.4-2.61-4.45,1.78,0,.26-3.72,1.27-7.36,2.56-11.23.3-3.48-2-1.1-.49,0,.39q1.46,1.64-.81-1.15c.56.82,1.08,1.67,1.56,2.54s2.39,2.86-.13-.69a12.55,12.55,0,0,1,1.16,3.6c.27,1,1,2.72.82,3.7.62-3.24-.14-2.53-.2-.81-.12,3.23,0,6.4-.27,9.63.34-3.72-.1.44-.26,1.38-.41,2.23-.87,4.44-1.37,6.65-.55,2.51-1.11,5-1.78,7.51-.24.9-.47,3-1.12,3.67,1.92-1.88,1.2-2.15.17-.62-2.65,4,3.11-2.22-.44.57.53-.42,3.73-2.18.76-.61-.31.17-4.38,2.17-1.35.87s-2.44.65-3,.81c-10.3,2.66-20.91,3.33-31.16,6.4-12.6,3.78-24.78,9.13-36.57,14.91-10.32,5.06-21.29,10.07-30.79,16.58-12.07,8.27-19.57,19.2-22.66,33.57-5.5,25.62-10.08,52.84-7.13,79.07,3.07,27.29,13.28,55.54,35.15,73.46,12.79,10.48,27.09,16.35,43.78,16.63,15.42.27,31.18-2.32,46.42-4.42,10.41-1.43,17-15.28,14-24.62-3.7-11.44-13.46-15.51-24.62-14,3.92-.54-.17,0-1.15.14-1.54.2-3.08.38-4.63.56q-3.7.43-7.41.81c-6.24.62-12.51,1.25-18.77,1.44a55.91,55.91,0,0,1-9.51-.29c3.74.53-2.16-.85-3.36-1.15-4.71-1.15,2.11,1.36-.38-.09-1.15-.67-2.37-1.2-3.52-1.88-.92-.54-1.8-1.14-2.71-1.71-4.3-2.72,2.76,2.62-1.05-.77-1.8-1.61-3.56-3.24-5.22-5-.9-1-5.07-6.47-2.52-2.73a133.78,133.78,0,0,1-8.17-13.8c-.41-.8-1.43-3.52.08.34-.39-1-.79-2-1.17-3q-1.39-3.81-2.49-7.72-1-3.52-1.73-7.11c-.27-1.32-.53-2.66-.76-4s-1.53-5.8-.21-1.11c-1.41-5-.9-11.37-.88-16.5,0-6.16.4-12.32,1-18.44.17-1.62.36-3.23.54-4.85.07-.62.56-3.92,0-.48.43-2.9.87-5.8,1.36-8.69,1-6.24,2.17-12.48,3.45-18.68.49-2.37,1.1-4.67,1.76-7,1.11-3.94-.24,0-.25.36,0-.21,2.7-4.43,1-2s1.51-1.39,1.61-1.5c.74-.81,2.87-1.85-.33.15,2.29-1.43,4.52-2.9,6.88-4.21,9.92-5.51,20-10.78,30.31-15.57,1.37-.64,2.74-1.26,4.12-1.88.87-.38,4.56-1.92,1-.48q3.33-1.36,6.72-2.63a149.55,149.55,0,0,1,17.2-5.24c9.52-2.25,19.64-2.46,28.8-6.09,14-5.55,23.18-15.53,27.33-30.12,3.35-11.77,6.22-25,5.25-37.3-1-13.2-5.38-26.38-15.11-35.82-6.19-6-13.57-9.74-22.31-9.72-8.32,0-16,4.37-22,9.84-7.44,6.83-11.3,16.54-14.66,25.79-.68,1.89-1.33,3.78-2,5.66l-.85,2.22c-1.18,3.17.44-1.34.65-1.54-1,.88-2,3.81-2.68,5-1.08,1.95-1.23-.19,1.17-1.4a24,24,0,0,0-2.29,2.33c.75-1.76,3.47-2.45,1.36-1.2-1.56.83-1.32.75.75-.24l-1.58.42c4.58-.4.73-.06-.42,0-1.67.07-3.34,0-5,0-6.7-.22-13.42-.79-20.07-1.66,3.73.49-.45-.09-1.37-.24-1.81-.28-3.63-.57-5.44-.93-.44-.09-3.34-.48-3.41-.82l2.24,1a12.19,12.19,0,0,1,4.84,6.38,18.68,18.68,0,0,0-.65-3.25c0-.26-.94-6.42-.41-2.3a72.92,72.92,0,0,1-.68-9.56c0,.12.27-6.12,0-2.91-.21,2.52.53-2.35.69-3,.33-1.29.78-2.52,1.17-3.79,1.18-3.88-1.78,2.72.51-1,1.4-2.28,2.65-4.61,4.15-6.84,2-3,.26-.35-.22.21,1.22-1.43,2.44-2.84,3.74-4.2,2.19-2.27,4.55-4.28,6.89-6.38.54-.48,3-2.35.05-.12,1.39-1.06,2.82-2.08,4.25-3.08,5.27-3.69,10.76-7,16.25-10.38,8.93-5.45,13.12-18.18,7.18-27.39-5.78-9-17.82-13-27.38-7.18Z" transform="translate(-36.05 -33.64)"/><path class="cls-5" d="M1404.23,808.32c-1.94,33.76-6.09,68.14,0,101.68,1.87,10.33,15,17.1,24.62,14,11.08-3.59,16-13.56,14-24.62-.34-1.87-.68-3.75-.93-5.63.56,4.11-.08-1.38-.16-2.23-.34-3.79-.54-7.59-.64-11.39-.2-8,.06-15.9.45-23.84.79-16,1.8-32,2.72-47.95.6-10.47-9.64-20.48-20-20-11.35.51-19.37,8.8-20,20Z" transform="translate(-36.05 -33.64)"/><path class="cls-5" d="M1506.61,594.65a180,180,0,0,0,3.74,48c3.22,15.49,23.05,18.37,33.46,8.84l.87-.8-8.83,5.14-17.76-10-.23-2.35c.31.33.18,2.91.21,3.49.17,3,.33,5.95.49,8.92q.46,8.43.92,16.86.91,16.85,1.79,33.71c1.14,22.47,2.2,45,3,67.44,1.73,45.3,2.65,90.63,1.9,136,0,2.39,0,4.78-.19,7.16a14.33,14.33,0,0,1-.22,2.82q.62-4.12.23-1.84c-.12.69-.26,1.37-.42,2a19.29,19.29,0,0,0-.76,2.62l1-2.3a18.49,18.49,0,0,1-1.32,2.28c-.19-.06,3.36-3.81.53-1.09,1.55-1.5,2.46-1.92.09-.49-15.23,9.18-18.38,24.86-13.76,41.14,2.85,10.06,14.28,17.32,24.62,14s17-13.84,14-24.63c-.35-1.22-.57-2.52-1-3.72-.83-2.52-.37,4.44.1,0a11.09,11.09,0,0,1-1.27,4.61c-3.16,5.66-6,5.14-3.1,3.53a38.64,38.64,0,0,0,15-14.24c5.77-10,6.28-21.66,6.46-32.87.39-24.48.29-49-.15-73.44-.88-49-3.16-97.9-5.75-146.81-.74-13.88-1.47-27.76-2.27-41.64-.51-9-1.9-17.61-8.77-24.11-9.76-9.21-24.2-8.51-33.83.32L1549,632c-.38-1.83-.74-3.65-1.07-5.49-.08-.48-.88-5.42-.5-2.88s-.27-2.41-.32-2.89q-.29-2.79-.46-5.58a159.66,159.66,0,0,1,0-20.52c.66-10.47-9.68-20.48-20-20-11.42.51-19.31,8.8-20,20Z" transform="translate(-36.05 -33.64)"/><path class="cls-5" d="M1754.8,625.69c-1.67,1.19-3.4,2.19-5.17,3.21-3.8,2.19.61-.37.59-.18a17.69,17.69,0,0,1-2.9.94c-1,.28-2,.47-3,.71-4.2,1,.75-.32.79-.07s-7.6-.15-7.62-.11c.21-.5,4.85,1.22.82-.07-.95-.3-2-.56-2.94-.82s-3.42-.5.44.29a15.5,15.5,0,0,1-2.94-1.46c-5.11-2.59-10.32-5.5-15.92-6.88-23.77-5.84-45.09,11.36-54.69,31.92-8.63,18.46-13.09,38.84-18.63,58.37-3.09,10.92-5.68,22.2-4.45,33.61s4,22.4,6.89,33.4a225.48,225.48,0,0,0,22.41,54.68c8.52,15.06,18.16,29.46,26.52,44.62,2,3.62,3.93,7.28,5.74,11,.89,1.85,1.74,3.72,2.6,5.58,1.61,3.46.11-.13-.19-.55a21.76,21.76,0,0,1,1.68,4.28c1.45,3.81,2.72,7.7,3.79,11.64q.8,3,1.44,6c.21,1,.41,2,.6,3l.26,1.53q.46,2.94.06.23l-.18-1.29a14.44,14.44,0,0,1,0,1.86c-.24,2.43.72-3,1-3.59,3-7.8,25.16-5.93,13.91-9.14-2.66-.76,3.09,1.7.73.29-.82-.49-1.73-.88-2.57-1.36s-1.66-1-2.48-1.52c-3.66-2.39,0,.06-.08.14-.26.31-8-7.45-8.6-8.15-1.36-1.48-2.68-3-4-4.57-.64-.78-1.27-1.58-1.91-2.37-3.26-4,2.48,3.38-.6-.79-7-9.38-13.33-20.18-23.48-26.45-13.49-8.33-33.77-5.46-41.9,9.13-6.3,11.31-4.6,27-3.77,39.54a264.59,264.59,0,0,0,5.58,39c2.25,10.24,14.71,17.19,24.62,14,10.77-3.48,16.39-13.65,14-24.62-1.08-4.94-2-9.9-2.8-14.88-.11-.68-.53-3.94-.07-.31-.16-1.25-.31-2.51-.45-3.76q-.46-4.23-.76-8.49-.51-7.08-.56-14.19c0-2.52,0-5,.08-7.57a22.51,22.51,0,0,0,.12-3.29c1.73,1.32-3.32,6.68-3.7,7.06-2.39,2.38-3.34,2.38-6.18,3.49l-1.39.17c1.76.06,1.73,0-.09-.1-.4-.13-5.24-1.83-2.92-.61,2.16,1.13-1.14-.72-1-.78.53-.19,5.18,6.11,2,1.9,1.53,2,3,4,4.5,6.07,5.51,7.47,11,15.06,17.4,21.83,14.34,15.2,45.28,34.34,61,10.12,6.46-10,4.53-22.05,2.14-33a143.59,143.59,0,0,0-8.36-24.94c-6.82-16.18-15.82-31.15-25-46.09-4.39-7.17-8.78-14.35-12.89-21.69-2-3.64-4-7.33-5.89-11.07-.93-1.87-1.84-3.75-2.71-5.64-.44-.94-.86-1.89-1.28-2.84-1-2.28-.67-.56.19.47-1.17-1.4-1.72-4.38-2.33-6.09-.83-2.32-1.6-4.65-2.33-7-1.55-5-2.89-10.06-4.15-15.14-1.12-4.49-2.22-9-3.25-13.51-.55-2.43-1-4.88-1.49-7.31.75,3.51,0,.66,0-.2-.1-1.55-.2-3.08-.19-4.64,0-1.19.16-2.39.17-3.58,0-3-.77,3,0,0,.6-2.29,1-4.65,1.57-6.95,1.36-5.22,2.91-10.39,4.39-15.58,2.72-9.55,5.31-19.15,8.21-28.65.65-2.14,1.34-4.28,2.08-6.39.32-.94.66-1.88,1-2.81,1.58-4.16,0,0,0,0s5.6-10.6,6.46-11.37c-3.18,2.83-1.24,1.57-.42.75s1.78-1.64,2.51-2.51c1.73-2-3,1.86-.7.45,1.07-.66,2.11-1.35,3.19-2,3.1-1.87.26-.17-.43.15,1.89-.44,2-.54.4-.3s-1.48.18.46.1c-5.4-.88,3.63,1.8-.87-.24,11.52,5.24,21.43,10.52,34.49,10.7a57.84,57.84,0,0,0,33.68-10.2c8.5-6.07,13.4-17.73,7.18-27.38-5.44-8.44-18.28-13.69-27.39-7.18Z" transform="translate(-36.05 -33.64)"/><path class="cls-5" d="M1998.78,1065.09c3.91,0,3.91-6.07,0-6.07s-3.92,6.07,0,6.07Z" transform="translate(-36.05 -33.64)"/></svg>